<?xml version="1.0" encoding="UTF-8"?>
<svg width="30px" height="30px" viewBox="0 0 30 30" version="1.1" xmlns="http://www.w3.org/2000/svg" xmlns:xlink="http://www.w3.org/1999/xlink">
    <title>画板</title>
    <defs>
        <linearGradient x1="50%" y1="0%" x2="50%" y2="100%" id="linearGradient-1">
            <stop stop-color="#7A66FF" offset="0%"></stop>
            <stop stop-color="#4436FF" offset="100%"></stop>
        </linearGradient>
        <linearGradient x1="50%" y1="0%" x2="50%" y2="100%" id="linearGradient-2">
            <stop stop-color="#3AE4E0" offset="0%"></stop>
            <stop stop-color="#1BC5BD" offset="100%"></stop>
        </linearGradient>
    </defs>
    <g id="画板" stroke="none" stroke-width="1" fill="none" fill-rule="evenodd" opacity="0.800000012">
        <path d="M27.2259303,1.68179061 L27.2259303,28.3182713 C27.2259303,29.2470644 26.4729947,30 25.5442016,30 C25.1623289,30 24.7918264,29.8700347 24.493634,29.6314808 L7.84583355,16.3132404 C7.12056799,15.733028 7.00297921,14.6747289 7.58319166,13.9494634 C7.66077277,13.852487 7.74885717,13.7644026 7.84583355,13.6868215 L24.493634,0.368581135 C25.2188996,-0.211631318 26.2771986,-0.0940425373 26.8574111,0.63122303 C27.095965,0.929415469 27.2259303,1.29991796 27.2259303,1.68179061 Z" id="路径-2" fill="url(#linearGradient-1)" fill-rule="nonzero"></path>
        <path d="M2,1.68179061 L2,28.3182713 C2,29.2470644 2.75293558,30 3.68172868,30 C4.06360133,30 4.43410383,29.8700347 4.73229626,29.6314808 L21.3800967,16.3132404 C22.1053623,15.733028 22.2229511,14.6747289 21.6427386,13.9494634 C21.5651575,13.852487 21.4770731,13.7644026 21.3800967,13.6868215 L4.73229626,0.368581135 C4.0070307,-0.211631318 2.94873166,-0.0940425373 2.36851921,0.63122303 C2.12996526,0.929415469 2,1.29991796 2,1.68179061 Z" id="路径-2" fill="url(#linearGradient-2)" fill-rule="nonzero"></path>
    </g>
</svg>