<?xml version="1.0" encoding="UTF-8"?>
<svg width="624px" height="239px" viewBox="0 0 624 239" version="1.1" xmlns="http://www.w3.org/2000/svg" xmlns:xlink="http://www.w3.org/1999/xlink">
    <title>编组 28</title>
    <defs>
        <rect id="path-1" x="0" y="0" width="313.055702" height="208.278867" rx="8.34782609"></rect>
        <linearGradient x1="57.320725%" y1="100%" x2="57.320725%" y2="0%" id="linearGradient-3">
            <stop stop-color="#6C6EF5" offset="0%"></stop>
            <stop stop-color="#5557E2" offset="100%"></stop>
        </linearGradient>
        <rect id="path-4" x="0" y="0" width="70.9592924" height="208.278867"></rect>
        <rect id="path-5" x="0" y="0" width="65.2199379" height="72.8976035"></rect>
        <path d="M2.08695652,0 L24.0010186,0 C25.1536129,3.88310926e-15 26.0879751,0.934362261 26.0879751,2.08695652 L26.0879751,3.57574066 L26.0879751,3.57574066 L28.1750132,5.46732026 L26.0879751,7.28976035 L26.0879751,8.847684 C26.0879751,10.0002783 25.1536129,10.9346405 24.0010186,10.9346405 L2.08695652,10.9346405 C0.934362261,10.9346405 5.85241297e-16,10.0002783 0,8.847684 L0,2.08695652 C-5.85241297e-16,0.934362261 0.934362261,-2.32361079e-16 2.08695652,0 Z" id="path-7"></path>
        <filter x="-3.5%" y="-9.1%" width="110.6%" height="136.6%" filterUnits="objectBoundingBox" id="filter-8">
            <feOffset dx="1" dy="2" in="SourceAlpha" result="shadowOffsetOuter1"></feOffset>
            <feColorMatrix values="0 0 0 0 0.742055307   0 0 0 0 0.823737793   0 0 0 0 1  0 0 0 1 0" type="matrix" in="shadowOffsetOuter1"></feColorMatrix>
        </filter>
        <linearGradient x1="50%" y1="0%" x2="50%" y2="100%" id="linearGradient-9">
            <stop stop-color="#C49DF4" offset="0%"></stop>
            <stop stop-color="#9164E5" offset="100%"></stop>
        </linearGradient>
        <path d="M10.2802302,1.4248543 L21.8526522,15.6865085 C22.8805626,16.9532875 22.96814,18.6768837 22.2033303,20.0124482 C21.8531379,20.8319516 21.2205843,21.563175 20.3483349,22.0631355 L3.37001423,31.7948583 C2.12822724,31.2957692 1.2215669,30.5898344 0.650033185,29.6770539 C0.0785015701,28.764272 -0.116147355,27.7113321 0.0660864109,26.5182339 L13.413,17.49 L4.29935165,6.25821314 C2.96403129,4.61258726 3.21558362,2.19605287 4.8612095,0.860732507 C4.86318959,0.859125792 4.86517128,0.85752105 4.86715457,0.855918285 C6.51969207,-0.479555538 8.94146453,-0.225017514 10.2802302,1.4248543 Z" id="path-10"></path>
        <linearGradient x1="50%" y1="0%" x2="50%" y2="100%" id="linearGradient-12">
            <stop stop-color="#C49DF4" offset="0%"></stop>
            <stop stop-color="#9164E5" offset="100%"></stop>
        </linearGradient>
        <path d="M1.17447284,2.57745098 C5.26158894,-0.286383442 11.7401028,-0.763689179 20.6100143,1.14553377 C22.8696714,4.85505072 24.0001798,7.45853656 24.0015394,8.95599129 C24.007553,15.9807168 21.2030335,19.5967975 20.6100143,22.8846405 C19.9877841,26.3344367 20.0016303,27.5531215 21.5230935,31.6063181 C21.7845791,32.3029192 22.6107278,34.1687507 24.0015394,37.2038126 C20.6100438,39.8072985 16.696818,41.1090414 12.2618623,41.1090414 C7.8269065,41.1090414 3.95719018,39.8072985 0.652713332,37.2038126 C1.43535259,31.2157952 1.60927242,26.963435 1.17447284,24.446732 C-0.317399104,15.8114925 -0.463871191,8.04627169 1.17447284,2.57745098 Z" id="path-13"></path>
        <linearGradient x1="44.7145827%" y1="18.7482124%" x2="50%" y2="81.2517876%" id="linearGradient-15">
            <stop stop-color="#C49DF4" offset="0%"></stop>
            <stop stop-color="#9164E5" offset="100%"></stop>
        </linearGradient>
        <path d="M0,0 L3.65231652,0 L3.65231652,24.2087714 C3.65231652,25.2172914 2.83474954,26.0348584 1.82622956,26.0348584 L1.82608696,26.0348584 C0.817566979,26.0348584 1.23508076e-16,25.2172914 0,24.2087714 L0,0 L0,0 Z" id="path-16"></path>
        <path d="M0,0 L5.73935453,0 L5.73935453,8.3280288 C5.73935453,9.19247449 5.03858284,9.89324619 4.17413714,9.89324619 L1.56521739,9.89324619 C0.700771696,9.89324619 3.2790867e-16,9.19247449 0,8.3280288 L0,0 L0,0 Z" id="path-18"></path>
        <path d="M10.5575758,-5.97809798 C11.5631939,-5.97861083 12.3788242,-5.16381203 12.379337,-4.15819392 C12.3793374,-4.1575754 12.3793374,-4.15695688 12.379337,-4.15633836 L12.3705695,13.0658169 C12.3700569,14.0727607 11.5538962,14.8889221 10.5469524,14.8894356 C9.54133433,14.8899485 8.72570404,14.0751497 8.72519119,13.0695316 C8.72519087,13.068913 8.72519087,13.0682945 8.72519119,13.067676 L8.73395873,-4.15447928 C8.73447135,-5.16142302 9.55063205,-5.97758445 10.5575758,-5.97809798 Z" id="path-20"></path>
        <path d="M10.5575758,-5.97809798 C11.5631939,-5.97861083 12.3788242,-5.16381203 12.379337,-4.15819392 C12.3793374,-4.1575754 12.3793374,-4.15695688 12.379337,-4.15633836 L12.3705695,13.0658169 C12.3700569,14.0727607 11.5538962,14.8889221 10.5469524,14.8894356 C9.54133433,14.8899485 8.72570404,14.0751497 8.72519119,13.0695316 C8.72519087,13.068913 8.72519087,13.0682945 8.72519119,13.067676 L8.73395873,-4.15447928 C8.73447135,-5.16142302 9.55063205,-5.97758445 10.5575758,-5.97809798 Z" id="path-22"></path>
        <path d="M0,44.7799564 C3.47906791e-15,41.9042254 2.33124063,39.5729847 5.20697168,39.5729847 L19.4262918,39.5729847 C22.0441608,39.5729847 24.2567194,37.6329979 24.598917,35.0375906 L28.6803502,4.08185472 C28.9883282,1.74598816 30.9796308,3.98551894e-15 33.335713,0 L48.529938,0 C51.123275,3.24212536e-15 53.2255901,2.10231509 53.2255901,4.69565217 C53.2255901,4.85847551 53.2171212,5.02118865 53.2002177,5.18313218 L49.0116844,45.3111813 C48.7343121,47.9685342 46.4942744,49.9869281 43.8224848,49.9869281 L5.20697168,49.9869281 C2.33124063,49.9869281 3.52175483e-16,47.6556875 0,44.7799564 Z" id="path-24"></path>
        <path d="M2.67424755,0 L27.09983,0 C28.0423212,-2.73551176e-15 28.8678496,0.631695706 29.1142214,1.54141566 L33.9143677,19.2657952 L33.9143677,19.2657952 L37.8291575,19.2657952 C38.2605171,19.2657952 38.6102032,19.6154813 38.6102032,20.046841 C38.6102032,20.4782006 38.2605171,20.8278867 37.8291575,20.8278867 L6.03191521,20.8278867 C5.55328353,20.8278867 5.1360223,20.5022601 5.0197142,20.037975 L0.649845522,2.59408958 C0.369763666,1.47604322 1.04906812,0.342636348 2.16711449,0.0625544914 C2.33295838,0.0210089299 2.50327905,-4.12682805e-16 2.67424755,0 Z" id="path-26"></path>
        <path d="M284.454189,86.8671622 L351.747754,86.9054775 C355.20275,86.9074447 358.003087,89.7077793 358.005057,93.1627753 L358.030589,137.927708 C358.032561,141.38549 355.231073,144.190175 351.773291,144.192147 C351.770912,144.192148 351.768534,144.192148 351.766155,144.192147 L284.47259,144.153832 C281.017594,144.151864 278.217257,141.35153 278.215287,137.896534 L278.189755,93.1316016 C278.187783,89.6738194 280.989271,86.8691344 284.447053,86.8671622 C284.449432,86.8671609 284.45181,86.8671609 284.454189,86.8671622 Z" id="path-28"></path>
        <filter x="-26.9%" y="-20.1%" width="153.8%" height="180.2%" filterUnits="objectBoundingBox" id="filter-29">
            <feOffset dx="0" dy="13" in="SourceAlpha" result="shadowOffsetOuter1"></feOffset>
            <feGaussianBlur stdDeviation="5" in="shadowOffsetOuter1" result="shadowBlurOuter1"></feGaussianBlur>
            <feColorMatrix values="0 0 0 0 0.39918649   0 0 0 0 0.407751411   0 0 0 0 0.98588363  0 0 0 0.0962285395 0" type="matrix" in="shadowBlurOuter1"></feColorMatrix>
        </filter>
        <linearGradient x1="10.9718667%" y1="74.7784948%" x2="45.0306311%" y2="61.625818%" id="linearGradient-30">
            <stop stop-color="#8D9BC4" offset="0%"></stop>
            <stop stop-color="#546292" offset="100%"></stop>
        </linearGradient>
        <path d="M0.998739029,11.95147 C3.71891004,7.90272346 6.24945175,4.6576944 8.59036415,2.21638283 C12.1017327,-1.44558453 19.2126772,2.85877059 14.8643415,8.72373342 C12.2493676,12.2507667 10.0827943,15.1407792 8.36462165,17.3937709 L8.36463287,17.3937794 C8.00930308,17.8597135 7.42163733,18.085499 6.8457403,17.9773492 C5.40569113,17.7069171 4.1239371,17.086101 3.00047823,16.114901 C1.62944208,14.929677 0.962195674,13.5418667 0.998739029,11.95147 Z" id="path-31"></path>
        <path d="M0.0495319348,0.380122551 L11.2691596,1.41824743e-14 L11.6014557,2.83872756 C13.4054334,10.1459735 14.4322397,16.2207737 14.6818746,21.0631284 C14.9315095,25.9054831 15.4030537,33.3488142 16.0965073,43.3931218 C18.2089358,49.0427421 19.2651501,53.2894818 19.2651501,56.1333409 C19.2651501,58.9772 19.4390699,67.5190972 19.7869096,81.7590324 C18.5897671,82.5255619 17.1648565,82.9088267 15.512178,82.9088267 C13.8594994,82.9088267 12.8029751,82.5255619 12.3426051,81.7590324 L8.5861103,56.1333409 L6.71495307,44.6665767 C3.2535664,29.0786097 1.23869155,19.0291806 0.670328531,14.5182893 C0.101965513,10.0073981 -0.104966686,5.29467584 0.0495319348,0.380122551 Z" id="path-33"></path>
        <linearGradient x1="50%" y1="0%" x2="50%" y2="100%" id="linearGradient-35">
            <stop stop-color="#8D9CC4" offset="0%"></stop>
            <stop stop-color="#546292" offset="100%"></stop>
        </linearGradient>
        <path d="M6.25773373,1.42219825 C-1.43430855,3.26093379 0.130969962,4.47509033 0.130969962,7.15741139 C0.130969962,8.94562544 0.419647866,21.106251 0.997003674,43.6392881 C3.80129892,45.1946958 7.44279575,45.9723997 11.9214942,45.9723997 C16.4001926,45.9723997 20.825922,44.736332 25.1986824,42.2641966 C24.4668216,38.5650742 24.1008912,34.8410472 24.1008912,31.0921155 C24.1008912,25.4687179 24.1008912,17.2023815 24.1008912,13.4794576 C24.1008912,9.75653369 25.6971856,4.87601669 21.0568273,2.26955698 C20.2878793,1.96064319 18.3522399,1.30112902 17.3947272,1.0766073 C17.2336919,1.03884703 16.6496837,0.195284436 16.4843777,0.175953918 C13.1365513,-0.215533624 10.7325977,0.130387645 8.36713518,0.400564387 C8.20944596,0.418575224 8.11984186,1.11730115 7.97078702,1.13653044 C7.2936098,1.22389179 6.70977256,1.32265771 6.25773373,1.42219825 Z" id="path-36"></path>
        <linearGradient x1="50%" y1="0%" x2="50%" y2="100%" id="linearGradient-38">
            <stop stop-color="#8D9BC4" offset="0%"></stop>
            <stop stop-color="#546292" offset="100%"></stop>
        </linearGradient>
        <linearGradient x1="50%" y1="0%" x2="50%" y2="100%" id="linearGradient-39">
            <stop stop-color="#7585FE" offset="0%"></stop>
            <stop stop-color="#B1E4EB" offset="100%"></stop>
        </linearGradient>
        <linearGradient x1="50%" y1="0%" x2="50%" y2="100%" id="linearGradient-40">
            <stop stop-color="#7585FE" offset="0%"></stop>
            <stop stop-color="#B1E4EB" offset="100%"></stop>
        </linearGradient>
        <path d="M0.285360405,0 L29.4549313,0 C29.5990055,-1.9299947e-16 29.7158008,0.116795283 29.7158008,0.260869565 C29.7158008,0.268663239 29.7154516,0.276452997 29.7147541,0.284215399 L24.5347239,57.9343347 C24.4622204,58.7412483 23.7859513,59.3594771 22.9757869,59.3594771 L6.76450473,59.3594771 C5.95434038,59.3594771 5.27807128,58.7412483 5.20556776,57.9343347 L0.0255375767,0.284215399 C0.0126440288,0.140719213 0.118518386,0.0139402848 0.262014571,0.00104673691 C0.269776973,0.000349262657 0.277566732,1.1116547e-15 0.285360405,0 Z" id="path-41"></path>
    </defs>
    <g id="通用页面" stroke="none" stroke-width="1" fill="none" fill-rule="evenodd">
        <g id="注册页2" transform="translate(-216.000000, -618.000000)">
            <g id="编组-28" transform="translate(216.000000, 618.000000)">
                <g id="web墙" transform="translate(155.459966, 0.000000)">
                    <mask id="mask-2" fill="white">
                        <use xlink:href="#path-1"></use>
                    </mask>
                    <use id="蒙版" fill="#E9E9FF" xlink:href="#path-1"></use>
                    <g id="矩形" mask="url(#mask-2)">
                        <use fill="#6B6DF4" xlink:href="#path-4"></use>
                        <use fill="url(#linearGradient-3)" xlink:href="#path-4"></use>
                    </g>
                    <rect id="矩形" fill="#FFFFFF" mask="url(#mask-2)" x="9.39167105" y="23.4313725" width="52.1759503" height="20.3071895" rx="4.69565217"></rect>
                    <rect id="矩形" fill="#FFFFFF" mask="url(#mask-2)" x="9.39167105" y="55.1938998" width="31.3055702" height="4.16557734" rx="2.08278867"></rect>
                    <rect id="矩形" fill="#FFFFFF" mask="url(#mask-2)" x="9.39167105" y="67.1699346" width="31.3055702" height="4.16557734" rx="2.08278867"></rect>
                    <rect id="矩形" fill="#FFFFFF" mask="url(#mask-2)" x="9.39167105" y="79.1459695" width="44.8713173" height="4.16557734" rx="2.08278867"></rect>
                    <rect id="矩形" fill="#FFFFFF" mask="url(#mask-2)" x="9.39167105" y="91.1220044" width="44.8713173" height="4.16557734" rx="2.08278867"></rect>
                    <rect id="矩形" fill="#FFFFFF" mask="url(#mask-2)" x="9.39167105" y="188.492375" width="26.0879751" height="4.16557734" rx="2.08278867"></rect>
                    <rect id="矩形" fill="#FFFFFF" mask="url(#mask-2)" x="9.39167105" y="178.078431" width="13.0439876" height="4.16557734" rx="2.08278867"></rect>
                    <rect id="矩形" fill="#6B6DF4" mask="url(#mask-2)" x="230.095941" y="13.0174292" width="45.9148363" height="10.4139434" rx="5.20697168"></rect>
                    <rect id="矩形" fill="#6B6DF4" mask="url(#mask-2)" x="286.445967" y="13.0174292" width="10.4351901" height="10.4139434" rx="5.20697168"></rect>
                    <rect id="矩形" fill="#FFFFFF" mask="url(#mask-2)" x="87.133837" y="105.180828" width="52.1759503" height="52.0697168" rx="5.2173913"></rect>
                    <rect id="矩形" fill="#FFFFFF" mask="url(#mask-2)" x="152.353775" y="105.180828" width="52.1759503" height="52.0697168" rx="5.2173913"></rect>
                    <rect id="矩形" fill="#FFFFFF" mask="url(#mask-2)" x="87.133837" y="169.747277" width="117.395888" height="20.8278867" rx="5.2173913"></rect>
                    <g id="编组-15" mask="url(#mask-2)">
                        <g transform="translate(97.047268, 173.912854)"></g>
                    </g>
                    <rect id="矩形" fill="#FFFFFF" mask="url(#mask-2)" x="217.573713" y="104.139434" width="79.3074445" height="86.4357298" rx="5.2173913"></rect>
                    <rect id="矩形" fill="#FFFFFF" mask="url(#mask-2)" x="217.573713" y="42.1764706" width="79.3074445" height="48.9455338" rx="5.2173913"></rect>
                    <g id="编组-25" mask="url(#mask-2)">
                        <g transform="translate(96.525508, 175.474946)">
                            <ellipse id="椭圆形" stroke="none" fill="#88A8F0" fill-rule="evenodd" cx="4.95671528" cy="4.94662309" rx="4.95671528" ry="4.94662309"></ellipse>
                            <path d="M39.6558469,5.72766885 C40.2309931,5.72766885 40.6972412,6.19391697 40.6972412,6.76906318 C40.6972412,7.34420939 40.2309931,7.81045752 39.6558469,7.81045752 L23.9988125,7.81045752 C23.4236663,7.81045752 22.9574181,7.34420939 22.9574181,6.76906318 C22.9574181,6.19391697 23.4236663,5.72766885 23.9988125,5.72766885 L39.6558469,5.72766885 Z M55.308632,2.08278867 C55.8837782,2.08278867 56.3500263,2.5490368 56.3500263,3.12418301 C56.3500263,3.69932922 55.8837782,4.16557734 55.308632,4.16557734 L23.9988125,4.16557734 C23.4236663,4.16557734 22.9574181,3.69932922 22.9574181,3.12418301 C22.9574181,2.5490368 23.4236663,2.08278867 23.9988125,2.08278867 L55.308632,2.08278867 Z" id="形状结合" stroke="none" fill="#91D6FF" fill-rule="evenodd"></path>
                            <polyline id="路径-19" stroke="#88A8F0" stroke-width="0.52173913" fill="none" points="70.445243 9.89324619 79.33353 5.20697168 84.3505736 9.89324619 91.307913 3.12418301 98.6125461 2.08308067"></polyline>
                        </g>
                    </g>
                    <g id="编组-24" mask="url(#mask-2)">
                        <g transform="translate(152.353775, 112.470588)">
                            <ellipse id="椭圆形" stroke="none" fill="#91D6FF" fill-rule="evenodd" cx="9.1307913" cy="36.1884532" rx="1.30439876" ry="1.30174292"></ellipse>
                            <rect id="矩形" stroke="none" fill="#91D6FF" fill-rule="evenodd" x="12.5222281" y="35.4074074" width="8.86991155" height="1.5620915" rx="0.781045752"></rect>
                            <rect id="矩形" stroke="none" fill="#91D6FF" fill-rule="evenodd" x="12.5222281" y="39.0522876" width="8.86991155" height="1" rx="0.5"></rect>
                            <ellipse id="椭圆形" stroke="none" fill="#91D6FF" fill-rule="evenodd" cx="32.0882094" cy="36.1884532" rx="1.30439876" ry="1.30174292"></ellipse>
                            <rect id="矩形" stroke="none" fill="#91D6FF" fill-rule="evenodd" x="35.4796462" y="35.4074074" width="8.86991155" height="1.5620915" rx="0.781045752"></rect>
                            <rect id="矩形" stroke="none" fill="#91D6FF" fill-rule="evenodd" x="35.4796462" y="39.0522876" width="8.86991155" height="1" rx="0.5"></rect>
                            <rect id="矩形" stroke="none" fill="#DEF3FF" fill-rule="evenodd" x="0" y="31.2418301" width="52.1759503" height="1"></rect>
                            <rect id="矩形" stroke="none" fill="#DEF3FF" fill-rule="evenodd" x="0" y="0" width="52.1759503" height="1"></rect>
                            <path d="M3.12921837,23.0430722 C5.69559582,18.5698612 8.630104,16.4980754 11.9327429,16.8277148 C16.8867012,17.3221738 18.7907054,23.0430722 25.1324801,23.0430722 C31.4742547,23.0430722 35.202812,11.4553377 41.9141004,11.4553377 C44.6809519,11.4553377 46.9180481,11.9691943 48.6253888,12.9969076" id="路径-19" stroke="#88A8F0" stroke-width="0.52173913" fill="none"></path>
                            <path d="M3.12921837,26.0348584 C6.06815921,25.6774008 9.03754045,24.3057781 12.0373621,21.9199903 C16.5370945,18.3413085 17.3689159,13.5605107 22.2534203,12.9597473 C27.1379247,12.358984 29.3138214,19.2985914 34.6142117,18.7181003 C39.914602,18.1376091 39.1992033,11.8657061 43.7100965,7.85321883 C45.2539858,6.47991294 46.8924166,5.72929137 48.6253888,5.60135413" id="路径-26" stroke="#00D755" stroke-width="0.52173913" fill="none"></path>
                        </g>
                    </g>
                    <g id="编组-16" mask="url(#mask-2)">
                        <g transform="translate(223.834827, 47.904139)">
                            <g id="编组-11" stroke-width="1" fill="none" transform="translate(16.696304, 7.289760)" stroke-linecap="round">
                                <path d="M17.4298745,21.2528314 C19.3629829,20.0808971 20.9217216,18.3552266 21.8850479,16.2964128" id="路径" stroke="#FF5A5A" stroke-width="4.17391304"></path>
                                <path d="M22.8472441,9.86179492 C22.4004342,6.65792273 20.6257994,3.87813859 18.0959747,2.09391169" id="路径" stroke="#5AC4FF" stroke-width="4.17391304"></path>
                                <path d="M11.4787091,0 C5.1391931,0 0,5.12872938 0,11.4553377 C0,17.781946 5.1391931,22.9106754 11.4787091,22.9106754" id="路径" stroke="#FF9E5A" stroke-width="4.17391304"></path>
                            </g>
                            <rect id="矩形" fill="#FF9E5A" opacity="0.497582753" x="49.5671528" y="24.9934641" width="17.7398231" height="2.08278867" rx="1.04139434"></rect>
                            <rect id="矩形" fill="#E0D2CF" x="0" y="0" width="12.0004686" height="5.20697168" rx="1.30434783"></rect>
                            <rect id="矩形" fill="#5AC4FF" opacity="0.497582753" x="49.5671528" y="29.1590414" width="15.1310256" height="2.08278867" rx="1.04139434"></rect>
                            <rect id="矩形" fill="#FF5A5A" opacity="0.497582753" x="49.5671528" y="33.3246187" width="11.4787091" height="2.08278867" rx="1.04139434"></rect>
                        </g>
                    </g>
                    <g id="编组-13" mask="url(#mask-2)">
                        <g transform="translate(224.878346, 110.908497)">
                            <mask id="mask-6" fill="white">
                                <use xlink:href="#path-5"></use>
                            </mask>
                            <g id="矩形" stroke="none" fill="none"></g>
                            <path d="M65.195736,33.943 L65.1966739,72.8978955 L50.551736,72.897 L43.155736,47.159 L65.195736,33.943 Z M39.915736,49.102 L46.752736,72.897 L0.233735981,72.897 L39.915736,49.102 Z M32.044736,21.711 L39.221736,46.688 L-0.0232640192,69.348 L-0.0232640192,30.665 L32.044736,21.711 Z M65.1966739,0.000291998935 L65.195736,31.69 L42.479736,44.806 L35.561736,20.729 L53.2367221,15.7940201 L47.315736,0 L65.1966739,0.000291998935 Z M25.806736,0 L31.386736,19.42 L-0.0232640192,27.77 L-0.0232640192,0.000291998935 L25.806736,0 Z M43.580736,0 L49.5494578,14.5926913 L34.915736,18.482 L29.605736,0 L43.580736,0 Z" id="矩形-6" stroke="none" fill="#DCE9FF" fill-rule="evenodd" mask="url(#mask-6)"></path>
                            <g id="编组-12" stroke="none" stroke-width="1" fill="none" fill-rule="evenodd" mask="url(#mask-6)">
                                <g transform="translate(34.412863, 8.852144)" fill="#88A8F0">
                                    <ellipse id="椭圆形" opacity="0.203389849" cx="12.7831078" cy="12.7570806" rx="6.00023428" ry="5.98801743"></ellipse>
                                    <ellipse id="椭圆形" opacity="0.203389849" cx="12.7831078" cy="12.7570806" rx="12.7831078" ry="12.7570806"></ellipse>
                                    <ellipse id="椭圆形" opacity="0.203389849" cx="12.7831078" cy="12.7570806" rx="2.34791776" ry="2.34313725"></ellipse>
                                    <path d="M12.7831078,4.16557734 C14.0528356,4.16557734 16.1745446,5.07434427 16.1745446,7.55010893 C16.1745446,9.20061871 15.0440657,10.9407698 12.7831078,12.7705621 C10.52215,10.9407698 9.39167105,9.20061871 9.39167105,7.55010893 C9.39167105,5.07434427 11.5133801,4.16557734 12.7831078,4.16557734 Z M12.7831078,5.98801743 C12.0627083,5.98801743 11.4787091,6.57082759 11.4787091,7.28976035 C11.4787091,8.00869311 12.0627083,8.59150327 12.7831078,8.59150327 C13.5035074,8.59150327 14.0875066,8.00869311 14.0875066,7.28976035 C14.0875066,6.57082759 13.5035074,5.98801743 12.7831078,5.98801743 Z" id="椭圆形-4"></path>
                                </g>
                            </g>
                            <g id="编组-12" stroke="none" stroke-width="1" fill="none" fill-rule="evenodd" mask="url(#mask-6)" opacity="0.203389849">
                                <g transform="translate(-5.762619, 36.969791)" fill="#88A8F0" id="椭圆形">
                                    <ellipse cx="20.0877409" cy="20.046841" rx="9.65255081" ry="9.6328976"></ellipse>
                                    <ellipse cx="20.0877409" cy="20.046841" rx="20.0877409" ry="20.046841"></ellipse>
                                    <ellipse cx="20.0877409" cy="20.046841" rx="3.91319627" ry="3.90522876"></ellipse>
                                </g>
                            </g>
                            <polyline id="路径-28" stroke="#88A8F0" stroke-width="0.52173913" fill="none" mask="url(#mask-6)" points="47.195971 21.6227059 35.2869823 26.5093311 41.1957367 46.6467904 66.2401929 32.1517456"></polyline>
                            <g id="编组-17" stroke="none" stroke-width="1" fill="none" fill-rule="evenodd" mask="url(#mask-6)">
                                <g transform="translate(6.237850, 13.017721)" id="矩形">
                                    <g fill="none">
                                        <use fill="black" fill-opacity="1" filter="url(#filter-8)" xlink:href="#path-7"></use>
                                        <use fill="#FFFFFF" fill-rule="evenodd" xlink:href="#path-7"></use>
                                    </g>
                                    <rect fill="#91D6FF" fill-rule="evenodd" x="2.60879751" y="2.08278867" width="6.78287354" height="6.76906318"></rect>
                                    <rect fill="#91D6FF" fill-rule="evenodd" x="10.9569496" y="2.08278867" width="12.0004686" height="1.5620915"></rect>
                                    <rect fill="#91D6FF" fill-rule="evenodd" x="10.9569496" y="4.68627451" width="12.0004686" height="4.16557734"></rect>
                                </g>
                            </g>
                        </g>
                    </g>
                    <g id="编组-20" mask="url(#mask-2)">
                        <g transform="translate(92.351432, 111.949891)">
                            <rect id="矩形" fill="#DEF3FF" x="0" y="0" width="41.7407602" height="38.5315904"></rect>
                            <polygon id="路径-2" fill="#88A8F0" points="13.8266268 26.091203 29.8454389 9.37254902 41.7407602 26.091203 41.7407602 38.5315904 20.3486206 38.5315904"></polygon>
                            <polygon id="路径-2" fill="#91D6FF" points="0 27.6770284 11.9704958 16.8224665 27.6532537 38.5315904 0 38.5315904"></polygon>
                        </g>
                    </g>
                </g>
                <g id="工作室" transform="translate(383.468869, 124.967320)">
                    <g id="桌子" transform="translate(0.000000, 50.507625)">
                        <rect id="矩形" fill="#91D6FF" x="6.78287354" y="6.24836601" width="6.26111404" height="54.6732026"></rect>
                        <rect id="矩形" fill="#FFFEFE" opacity="0.361639114" x="6.78287354" y="6.24836601" width="3.13055702" height="54.6732026"></rect>
                        <rect id="矩形" fill="#91D6FF" x="34.9578867" y="6.24836601" width="6.26111404" height="54.6732026"></rect>
                        <rect id="矩形" fill="#FFFEFE" opacity="0.361639114" x="34.9578867" y="6.24836601" width="3.13055702" height="54.6732026"></rect>
                        <rect id="矩形" fill="#91D6FF" x="70.4375329" y="6.24836601" width="6.26111404" height="54.6732026"></rect>
                        <rect id="矩形" fill="#FFFEFE" opacity="0.361639114" x="70.4375329" y="6.24836601" width="3.13055702" height="54.6732026"></rect>
                        <rect id="矩形" fill="#91D6FF" x="0" y="0" width="81.3944825" height="6.24836601" rx="3.12418301"></rect>
                        <rect id="矩形" fill="#FFF9F9" opacity="0.361639114" x="0" y="0" width="46.4365958" height="6.24836601" rx="3.12418301"></rect>
                    </g>
                    <g id="垃圾桶" transform="translate(0.521760, 83.311896)">
                        <polygon id="矩形" fill="#91D6FF" transform="translate(4.434956, 13.537777) rotate(-11.000000) translate(-4.434956, -13.537777) " points="3.12548026 -0.00185231769 5.73408439 -0.000857423229 5.74443129 27.0774065 3.13582716 27.0764116"></polygon>
                        <path d="M5.49253287,1.93117026 C5.52681309,1.68457736 5.91853011,1.48382263 6.66768395,1.32890608 C7.41683779,1.17398952 7.89465547,1.37507588 8.101137,1.93216516 L8.10884646,22.108155 L5.50024234,22.1071601 L5.49253287,1.93117026 Z" id="矩形" fill="#88A8F0" transform="translate(6.800690, 11.693251) rotate(-11.000000) translate(-6.800690, -11.693251) "></path>
                        <polygon id="矩形" fill="#DEF3FF" transform="translate(9.514846, 8.436634) rotate(-11.000000) translate(-9.514846, -8.436634) " points="4.19639957 4.01037954 13.4807876 4.01392051 14.8332915 4.62886724 14.5512651 11.9600199 4.19978221 12.8628889"></polygon>
                        <path d="M8.34330048,5.30637352 L8.86494824,5.30657247 C9.44093392,5.30758914 9.90780806,5.77446295 9.90882515,6.35044863 L9.91459477,21.4497816 L9.91459477,21.4497816 L7.30599065,21.4487868 L7.30022102,6.34945373 C7.29920442,5.77315695 7.766207,5.30579734 8.34250409,5.30557713 C8.34276966,5.30557702 8.34303522,5.30557702 8.34330048,5.30637352 Z" id="矩形" fill="#91D6FF" transform="translate(8.607209, 13.377879) rotate(-11.000000) translate(-8.607209, -13.377879) "></path>
                        <path d="M0,7.2894111 L16.6963041,7.2894111 L14.5480301,26.7240496 C14.4603662,27.5171128 13.7901821,28.1172978 12.9922885,28.1172978 L3.70401563,28.1172978 C2.90612202,28.1172978 2.23593792,27.5171128 2.14827398,26.7240496 L0,7.2894111 L0,7.2894111 Z" id="矩形" fill="#88A8F0"></path>
                    </g>
                    <g id="女人-坐姿" transform="translate(55.306507, 0.000000)">
                        <path d="M11.3275178,99.2664967 L16.4560754,99.2925484 L16.4244003,107.223667 C16.4190717,108.557898 15.3331433,109.635187 13.9989114,109.629859 C13.9925622,109.629833 13.9862132,109.629783 13.9798644,109.629708 C12.6223813,109.613582 11.522379,108.52362 11.4938085,107.166341 L11.3275178,99.2664967 L11.3275178,99.2664967 Z" id="矩形" fill="#FCBCBB" transform="translate(13.891797, 104.462563) rotate(7.000000) translate(-13.891797, -104.462563) "></path>
                        <path d="M42.4477577,98.2523682 L47.0118682,98.2829186 L46.9903364,106.484553 C46.9872309,107.667458 46.0257787,108.623876 44.8428728,108.62077 C44.8345132,108.620748 44.8261537,108.620677 44.8177949,108.620557 C43.6093461,108.603234 42.6321062,107.631178 42.6083552,106.422839 L42.4477577,98.2523682 L42.4477577,98.2523682 Z" id="矩形" fill="#FCBCBB" opacity="0.524256388" transform="translate(44.729813, 103.451994) rotate(-22.000000) translate(-44.729813, -103.451994) "></path>
                        <path d="M8.34815205,106.222222 C9.41269016,105.792006 10.0324666,105.284295 10.4351901,104.660131 C10.5277922,104.516611 10.9569496,103.618736 11.4787091,103.618736 C11.4651528,104.241564 11.9365671,104.738956 12.8929519,105.110912 C13.4753785,105.337429 14.6928174,105.250646 16.5452685,104.850564 C16.4513533,106.351898 16.4078733,107.349901 16.4148286,107.844572 C16.4310568,108.998759 16.3509622,110.193632 16.1745446,111.429194 L12.0004686,111.429194 C11.7862947,110.734931 11.4384551,110.3878 10.9569496,110.3878 C9.91343056,110.3878 9.39167105,111.429194 5.21759503,111.429194 C4.06311551,111.429194 2.32391717,111.429194 0,111.429194 C0.434799586,109.953885 1.30439876,109.086057 2.60879751,108.825708 C4.56539565,108.435185 6.73120397,106.875686 8.34815205,106.222222 Z" id="矩形" fill="#31374B"></path>
                        <path d="M39.6331265,106.933352 C41.2500745,106.279888 41.0679651,105.110912 42.3723638,104.590215 C42.9719699,104.350861 43.0245632,106.412655 45.5029209,106.152306 C47.0457117,105.990238 47.784871,105.469541 47.7203988,104.590215 C48.2594445,105.629049 48.5638042,106.366703 48.6334779,106.803178 C48.7850243,107.752549 48.6293615,108.593197 48.6334779,108.885967 C48.6578202,110.617246 48.4682482,110.725766 47.9812785,110.968755 C46.9377595,111.489452 46.6980669,111.018647 41.5897246,111.09893 C38.184163,111.152451 35.8362453,111.065668 34.5459713,110.838581 C33.9372519,109.363272 34.2850916,108.495444 35.5894903,108.235095 C37.5460884,107.844572 38.0161784,107.586816 39.6331265,106.933352 Z" id="矩形" fill="#31374B"></path>
                        <path d="M13.5451513,38.4616747 L9.11019553,35.0771431 C8.58843603,34.7300116 8.1971164,34.165923 7.93623665,33.3848773 C7.54491702,32.2133087 6.89271764,29.0891257 7.41447715,28.6986028 C7.76231682,28.4382542 8.32755628,28.6118199 9.11019553,29.2193 L13.5451513,32.2133087 C13.2842716,29.9569543 13.1538317,28.6552114 13.1538317,28.3080799 C13.1538317,27.7873827 14.4582304,28.6986028 14.4582304,29.2193 C14.4582304,29.5664314 14.7191102,30.3474771 15.2408697,31.5624372 C16.0235089,32.950963 16.2409087,33.9055745 15.8930691,34.4262716 C15.5452294,34.9469688 16.8496282,35.8581888 19.8062653,37.1599318 L17.7192273,40.5444633 L13.5451513,38.4616747 Z" id="路径-16" fill="#FCBCBB"></path>
                        <path d="M34.6577245,71.3712793 C34.0522117,74.236543 32.6717247,84.4393697 30.5162634,101.979759 C31.2122953,102.848873 31.9949313,103.414117 32.8641714,103.675491 C33.7334114,103.936865 34.8630951,103.93796 36.2532225,103.678775 C39.0277519,97.2550108 40.9348515,92.4370192 41.9745212,89.2248004 C43.5340258,84.4064721 43.8648573,83.2738563 44.0499877,78.8055371 C44.1184787,77.1524343 44.2100097,71.4355099 42.6074442,69.8157906 C41.590515,68.7879761 40.5042155,68.1771098 39.2164987,67.8585162 C37.0483464,67.3220943 35.5659936,67.0733837 34.6577245,71.3712793 Z" id="路径-14" fill="#282D3D" transform="translate(37.298280, 85.720286) rotate(-36.000000) translate(-37.298280, -85.720286) "></path>
                        <path d="M21.3715439,67.1000189 C22.8063825,64.8870559 29.2055389,63.6532306 33.2415725,62.674093 C35.9322616,62.0213346 40.1498176,61.2402888 45.8942405,60.3309557 C51.0411326,58.3314853 54.736929,57.6372224 56.9816299,58.2481671 C59.8513072,59.0292128 62.0728358,61.2418288 62.7209845,62.674093 C64.5471427,66.709496 63.5036237,70.7448991 61.2861458,73.3483849 C59.0686679,75.9518708 55.0250318,76.7329165 51.2422754,76.7329165 C48.2936954,76.7329165 43.3900666,75.704065 40.5462056,75.4311736 C33.763332,74.7803021 27.9140003,73.7764424 24.6325407,72.3069906 C21.3510812,70.8375388 19.9367052,69.3129819 21.3715439,67.1000189 Z" id="矩形" fill="#2A2F40"></path>
                        <path d="M16.2843887,67.1000189 C17.7192273,64.8870559 24.1183838,63.6532306 28.1544174,62.674093 C30.8451065,62.0213346 35.0626624,61.2402888 40.8070853,60.3309557 C45.9539774,58.3314853 49.6497739,57.6372224 51.8944748,58.2481671 C54.764152,59.0292128 56.9856807,61.2418288 57.6338293,62.674093 C59.4599876,66.709496 58.4164686,70.7448991 56.1989907,73.3483849 C53.9815128,75.9518708 50.8509558,76.7329165 47.0681994,76.7329165 C44.1196194,76.7329165 38.3029115,75.704065 35.4590504,75.4311736 C28.6761769,74.7803021 22.8268451,73.7764424 19.5453856,72.3069906 C16.2639261,70.8375388 14.8495501,69.3129819 16.2843887,67.1000189 Z" id="矩形" fill="#31374B"></path>
                        <path d="M40.6766455,32.7340058 C39.024407,34.4696631 37.8069682,36.1619289 37.0243289,37.8108032 C35.8503701,40.2841148 36.5025694,44.0591692 40.6766455,45.1005636 C43.4593628,45.7948265 46.1116403,44.3195178 48.6334779,40.6746376 L40.6766455,32.7340058 Z" id="路径-13" fill="#7C54C8"></path>
                        <path d="M46.416,16.0716965 L53.4597533,16.0716965 C52.9379938,17.4168308 52.677114,18.7619652 52.677114,20.1070995 C52.677114,21.4522339 52.9379938,22.7973682 53.4597533,24.1425026 C51.9640427,24.7499826 50.8161718,25.0537226 50.0161406,25.0537226 C49.2161093,25.0537226 48.0160625,24.7499826 46.416,24.1425026 C46.8334076,22.7539768 47.0421114,21.5824082 47.0421114,20.6277967 C47.0421114,19.6731852 46.8334076,18.1544851 46.416,16.0716965 Z" id="矩形" fill="#FCBCBB"></path>
                        <g id="路径-18" transform="translate(50.576696, 24.505929)">
                            <mask id="mask-11" fill="white">
                                <use xlink:href="#path-10"></use>
                            </mask>
                            <use id="蒙版" fill="url(#linearGradient-9)" xlink:href="#path-10"></use>
                            <path d="M11.6225287,6.14528819 C12.8399676,11.265477 13.3182471,14.5198343 13.0573673,15.9083601 C12.7964876,17.2968859 12.2312481,17.5572344 11.361649,16.6894058 L9.27461095,14.4764429 L11.6225287,6.14528819 Z" fill="#7E5FAC" mask="url(#mask-11)"></path>
                        </g>
                        <g id="路径-17" transform="translate(38.589093, 23.387492)">
                            <mask id="mask-14" fill="white">
                                <use xlink:href="#path-13"></use>
                            </mask>
                            <use id="蒙版" fill="url(#linearGradient-12)" xlink:href="#path-13"></use>
                            <path d="M5.08766911,8.82581699 C4.21806994,12.2103486 3.39195072,15.9420116 2.60931147,20.0208061 C1.81919626,24.1385622 1.42787663,27.5664852 1.43535259,30.3045752 L-0.52124555,15.5948802 L5.08766911,8.82581699 Z" fill="#000000" opacity="0.270901271" mask="url(#mask-14)"></path>
                        </g>
                        <path d="M43.5782008,24.687725 C45.4514542,25.6817236 46.1642312,28.0060906 45.1702326,29.8793441 C45.1692189,29.8812545 45.1682036,29.883164 45.1671867,29.8850726 L35.5569703,47.9224607 C34.5576277,49.7981241 32.2281826,50.5103057 30.3508333,49.5141338 C30.1859631,49.4266493 30.0300823,49.3288594 29.8835632,49.2219787 L13.13821,39.1288509 C12.9735835,37.8030077 13.15271,36.6693953 13.6755897,35.7280137 C14.1984714,34.7866332 15.0269046,34.1062606 16.1608893,33.6868959 L30.5480792,40.962465 L38.3720638,26.2793981 C39.3714064,24.4037347 41.7008515,23.6915531 43.5782008,24.687725 Z" id="形状结合" fill="url(#linearGradient-15)"></path>
                        <path d="M15.5017494,70.0940276 C14.89303,72.957862 13.5016713,83.1548482 11.3276734,100.684986 C12.0233528,101.552815 12.805992,102.116903 13.6755912,102.377252 C14.5451904,102.637601 15.6756693,102.637601 17.067028,102.377252 C19.8497453,95.9553203 21.7628635,91.1388715 22.8063825,87.9279056 C24.371661,83.1114568 24.7038245,81.9793174 24.8934205,77.5139623 C24.9635636,75.861956 25.0607055,70.1489645 23.4585819,68.5319361 C22.441933,67.5058293 21.3554605,66.8964445 20.0671451,66.5793217 C17.8979849,66.0453764 16.4148286,65.798276 15.5017494,70.0940276 Z" id="路径-14" fill="#31374B"></path>
                        <path d="M49.0247975,19.3260538 C52.677114,17.7639623 55.5467913,15.0704814 55.5467913,10.8647248 C55.5467913,6.65896813 52.1553545,3.05426727 46.5464399,4.48618448 C43.9658366,5.1449947 41.8855831,7.62594253 40.8620573,10.2676434 C40.4915735,11.2238549 40.5462056,12.220279 40.5462056,13.3380363 C40.5462056,13.92194 39.9178693,14.6142636 40.0244461,15.1604764 C40.078766,15.4388696 40.7342605,15.8011338 40.8070853,16.2018708 C40.9408935,16.9381842 41.9712936,19.6749725 42.241924,20.1070995 C42.8941234,21.1484938 47.5362071,19.9627222 49.0247975,19.3260538 Z" id="椭圆形" fill="#FCBCBB"></path>
                        <path d="M42.6332436,18.545008 C42.3723638,19.4562281 41.5897246,19.9769252 41.198405,19.9769252 C40.8070853,19.9769252 43.4158829,18.0243108 41.198405,13.7285592 C38.9809271,9.43280758 40.6766455,3.83531302 43.0245632,2.5335701 C45.372481,1.23182718 45.8942405,1.10165289 47.7203988,0.450781432 C49.546557,-0.200090028 52.8075539,-0.590612904 56.1989907,2.5335701 C59.5904274,5.65775311 59.8513072,10.6043762 59.1991078,13.7285592 C58.5469084,16.8527422 60.1121869,18.4148337 61.155706,20.8881453 C62.199225,23.3614568 63.1123041,27.5270342 61.9383452,28.5684285 C60.7643863,29.6098228 63.242744,33.5150516 58.6773483,31.6926115 C54.1119527,29.8701714 55.2859115,29.0891257 53.1988735,29.3494742 C51.1118355,29.6098228 49.9378766,32.343483 48.6334779,28.1779056 C47.3290791,24.0123283 46.5464399,23.882154 45.6333607,25.1838969 C44.7202816,26.4856398 44.5898417,26.2252912 43.9376424,25.5744198 C42.6381249,24.2775482 41.9810442,21.5390167 42.3723638,20.3674481 C42.7630008,19.1979233 42.8941234,17.633788 42.6332436,18.545008 Z" id="路径-15" fill="#484141"></path>
                    </g>
                    <g id="椅子" transform="translate(93.916711, 29.679739)">
                        <g id="腿" transform="translate(3.130557, 49.986928)">
                            <g id="矩形" transform="translate(21.913899, 0.000000)">
                                <mask id="mask-17" fill="white">
                                    <use xlink:href="#path-16"></use>
                                </mask>
                                <use id="蒙版" fill="#91D6FF" xlink:href="#path-16"></use>
                                <path d="M1.04351901,0 L1.04351901,24.2087714 C1.04351901,25.0360501 1.59363975,25.7348413 2.34801984,25.9592834 C2.22922259,25.9946417 2.10449023,26.0183744 1.97599709,26.028805 L1.82608696,26.0348584 C0.817566979,26.0348584 3.93231903e-15,25.2172914 0,24.2087714 L0,0 L1.04351901,0 Z" id="矩形-2" fill="#FFFFFF" opacity="0.35" mask="url(#mask-17)"></path>
                            </g>
                            <g id="矩形" transform="translate(20.870380, 0.000000)">
                                <mask id="mask-19" fill="white">
                                    <use xlink:href="#path-18"></use>
                                </mask>
                                <use id="蒙版" fill="#91D6FF" xlink:href="#path-18"></use>
                                <rect fill="#FFFFFF" opacity="0.35" mask="url(#mask-19)" x="0" y="0" width="1.04351901" height="9.89324619"></rect>
                            </g>
                            <g id="编组-3" transform="translate(2.382834, 17.929903)">
                                <mask id="mask-21" fill="white">
                                    <use xlink:href="#path-20"></use>
                                </mask>
                                <use id="矩形" fill="#91D6FF" transform="translate(10.552264, 4.455669) rotate(-285.000000) translate(-10.552264, -4.455669) " xlink:href="#path-20"></use>
                                <path d="M19.5483419,-0.918583975 L19.5748001,-0.878503544 C19.0170264,-1.24319798 18.279199,-1.28819703 17.6624155,-0.932821947 L17.6624155,-0.932821947 L2.74747684,7.66078905 C2.74654893,7.66132368 2.7456215,7.66185913 2.74469454,7.66239541 C1.87457208,8.16578578 1.57727699,9.27923792 2.08066736,10.1493604 L2.08066736,10.1493604 L2.13804972,10.2419263 C1.90698997,10.0906326 1.70688359,9.88444287 1.5591601,9.62909923 L1.55890785,9.62866321 C1.05551748,8.75854075 1.35281258,7.64508861 2.22293504,7.14169824 C2.223862,7.14116197 2.22478943,7.14062651 2.22571733,7.14009188 L17.1406559,-1.45351911 C17.9674793,-1.92991382 19.0118245,-1.68681661 19.5483419,-0.918583975 Z" id="矩形-3" fill="#FFFFFF" opacity="0.35" mask="url(#mask-21)" transform="translate(10.444851, 4.272735) rotate(-345.000000) translate(-10.444851, -4.272735) "></path>
                            </g>
                            <g id="编组-3" transform="translate(34.545016, 22.385572) scale(-1, 1) translate(-34.545016, -22.385572) translate(23.992752, 17.929903)">
                                <mask id="mask-23" fill="white">
                                    <use xlink:href="#path-22"></use>
                                </mask>
                                <use id="矩形" fill="#91D6FF" transform="translate(10.552264, 4.455669) rotate(-285.000000) translate(-10.552264, -4.455669) " xlink:href="#path-22"></use>
                                <path d="M19.5483419,-0.918583975 L19.5748001,-0.878503544 C19.0170264,-1.24319798 18.279199,-1.28819703 17.6624155,-0.932821947 L17.6624155,-0.932821947 L2.74747684,7.66078905 C2.74654893,7.66132368 2.7456215,7.66185913 2.74469454,7.66239541 C1.87457208,8.16578578 1.57727699,9.27923792 2.08066736,10.1493604 L2.08066736,10.1493604 L2.13804972,10.2419263 C1.90698997,10.0906326 1.70688359,9.88444287 1.5591601,9.62909923 L1.55890785,9.62866321 C1.05551748,8.75854075 1.35281258,7.64508861 2.22293504,7.14169824 C2.223862,7.14116197 2.22478943,7.14062651 2.22571733,7.14009188 L17.1406559,-1.45351911 C17.9674793,-1.92991382 19.0118245,-1.68681661 19.5483419,-0.918583975 Z" id="矩形-3" fill="#FFFFFF" opacity="0.35" mask="url(#mask-23)" transform="translate(10.444851, 4.272735) rotate(-345.000000) translate(-10.444851, -4.272735) "></path>
                            </g>
                            <g id="编组-5" transform="translate(0.000000, 26.034858)">
                                <ellipse id="椭圆形" fill="#91D6FF" cx="2.86967727" cy="2.86383442" rx="2.86967727" ry="2.86383442"></ellipse>
                                <path d="M2.86967727,0 C2.96719779,0 3.06358216,0.00485455717 3.15860096,0.0143347291 C1.97119227,0.156474501 1.04351901,1.37801479 1.04351901,2.86383442 C1.04351901,4.34882073 1.97015198,5.56982405 3.15661734,5.71352524 L3.0382926,5.7228073 L3.0382926,5.7228073 L2.86967727,5.72766885 C1.28479828,5.72766885 0,4.4454865 0,2.86383442 C0,1.28218235 1.28479828,0 2.86967727,0 Z" id="椭圆形-2" fill="#FFFFFF" opacity="0.35"></path>
                            </g>
                            <g id="编组-6" transform="translate(21.392140, 26.034858)">
                                <ellipse id="椭圆形" fill="#91D6FF" cx="2.34791776" cy="2.86383442" rx="2.34791776" ry="2.86383442"></ellipse>
                                <path d="M2.34791776,0 C2.47905451,0 2.60768026,0.0131131404 2.73296173,0.0383230277 C2.33497531,0.750191013 2.08703801,1.7528337 2.08703801,2.86383442 C2.08703801,3.97432575 2.334748,4.97655838 2.73241593,5.68762038 C2.60768026,5.7145557 2.47905451,5.72766885 2.34791776,5.72766885 C1.05119859,5.72766885 0,4.4454865 0,2.86383442 C0,1.28218235 1.05119859,0 2.34791776,0 Z" id="椭圆形-3" fill="#FFFFFF" opacity="0.35"></path>
                            </g>
                            <g id="编组-7" transform="translate(41.740760, 26.034858)">
                                <ellipse id="椭圆形" fill="#91D6FF" cx="2.86967727" cy="2.86383442" rx="2.86967727" ry="2.86383442"></ellipse>
                                <path d="M2.86967727,0 C2.96719779,0 3.06358216,0.00485455717 3.15860096,0.0143347291 C1.97119227,0.156474501 1.04351901,1.37801479 1.04351901,2.86383442 C1.04351901,4.34882073 1.97015198,5.56982405 3.15661734,5.71352524 L3.0382926,5.7228073 L3.0382926,5.7228073 L2.86967727,5.72766885 C1.28479828,5.72766885 0,4.4454865 0,2.86383442 C0,1.28218235 1.28479828,0 2.86967727,0 Z" id="椭圆形-2" fill="#FFFFFF" opacity="0.35"></path>
                            </g>
                        </g>
                        <g id="椅坐">
                            <mask id="mask-25" fill="white">
                                <use xlink:href="#path-24"></use>
                            </mask>
                            <use id="蒙版" fill="#91D6FF" xlink:href="#path-24"></use>
                            <path d="M-21.3921396,39.5729847 C-21.3921396,36.6972537 -19.060899,34.3660131 -16.1851679,34.3660131 L-1.96584782,34.3660131 C0.652021207,34.3660131 2.86457973,32.4260262 3.20677743,29.8306189 L7.28821063,-1.12511696 C7.59618855,-3.46098351 9.58749122,-5.20697168 11.9435733,-5.20697168 L27.1377983,-5.20697168 C29.7311354,-5.20697168 31.8334505,-3.10465659 31.8334505,-0.511319504 C31.8334505,-0.348496168 31.8249816,-0.185783031 31.8080781,-0.0238394937 L27.6195448,40.1042096 C27.3421725,42.7615625 25.1021348,44.7799564 22.4303451,44.7799564 L-16.1851679,44.7799564 C-19.060899,44.7799564 -21.3921396,42.4487158 -21.3921396,39.5729847 Z" id="路径" fill="#FFFFFF" opacity="0.35" mask="url(#mask-25)"></path>
                        </g>
                    </g>
                    <g id="电脑" transform="translate(15.131026, 29.679739)">
                        <mask id="mask-27" fill="white">
                            <use xlink:href="#path-26"></use>
                        </mask>
                        <use id="蒙版" fill="#88A8F0" xlink:href="#path-26"></use>
                        <rect id="矩形" fill="#5F8DF5" mask="url(#mask-27)" x="4.17407602" y="19.2657952" width="34.4361272" height="1.5620915" rx="0.781045752"></rect>
                        <path d="M3.43467421,1.5620915 L26.8452857,1.5620915 C27.3209672,1.5620915 27.7364435,1.88379595 27.8555332,2.34432882 L31.489941,16.3989845 C31.6342204,16.9569288 31.2988787,17.5261936 30.7409344,17.670473 C30.6556069,17.6925379 30.5678277,17.7037037 30.4796935,17.7037037 L7.06908201,17.7037037 C6.59340052,17.7037037 6.17792415,17.3819993 6.05883449,16.9214664 L2.42442669,2.8668107 C2.2801473,2.30886641 2.61548897,1.73960163 3.17343327,1.59532224 C3.25876078,1.57325732 3.34653996,1.5620915 3.43467421,1.5620915 Z" id="矩形" fill="#FFFFFF" mask="url(#mask-27)"></path>
                        <path d="M4.82621162,19.2657952 L14.7396625,19.2657952 C15.0278111,19.2657952 15.2614017,19.4993858 15.2614017,19.7875343 L15.2614017,20.5670171 C15.2614017,20.7110914 15.1446064,20.8278867 15.0005321,20.8278867 L4.82621162,20.8278867 L4.82621162,20.8278867 L4.82621162,19.2657952 Z" id="矩形" fill="#FFFFFF" opacity="0.35" mask="url(#mask-27)"></path>
                    </g>
                    <path d="M55.3065073,49.9869281 C55.7170841,49.2926652 56.2388436,48.9455338 56.8717858,48.9455338 C57.4454075,48.9455338 58.4990997,49.2306467 60.0328624,49.8008727 C60.3281851,49.9106882 60.5241023,50.192546 60.5241023,50.5076253 L60.5241023,50.5076253 L60.5241023,50.5076253 L55.3065073,50.5076253 L55.3065073,49.9869281 Z" id="鼠标" fill="#4EBCFE" transform="translate(57.915305, 49.726580) scale(-1, 1) translate(-57.915305, -49.726580) "></path>
                </g>
                <g id="文件柜" transform="translate(565.041176, 135.901961)">
                    <rect id="矩形" fill="#91D6FF" x="1.56527851" y="20.3071895" width="57.3935453" height="80.1873638" rx="5.2173913"></rect>
                    <rect id="矩形" fill="#FFFFFF" opacity="0.35" x="1.56527851" y="20.3071895" width="42.2625197" height="80.1873638" rx="5.2173913"></rect>
                    <g id="编组-8" transform="translate(0.000000, 23.431373)">
                        <rect id="矩形" fill="#88A8F0" x="5.21759503" y="6.24836601" width="34.9578867" height="18.2244009" rx="2.60869565"></rect>
                        <rect id="矩形" fill="#FFFFFF" opacity="0.548613775" x="5.21759503" y="1.04139434" width="24.5226966" height="16.1416122"></rect>
                        <rect id="矩形" fill="#FFFFFF" opacity="0.548613775" x="6.78287354" y="0" width="24.5226966" height="16.1416122"></rect>
                        <rect id="矩形" fill="#FFFFFF" opacity="0.548613775" x="3.65231652" y="2.08278867" width="24.5226966" height="16.1416122"></rect>
                        <rect id="矩形" fill="#DEF3FF" x="0" y="3.64488017" width="34.9578867" height="20.8278867" rx="2.60869565"></rect>
                        <path d="M13.0439876,3.64488017 L21.9138991,3.64488017 L21.9138991,4.68314862 C21.9138991,5.54759432 21.2131274,6.24836601 20.3486817,6.24836601 L14.609205,6.24836601 C13.7447593,6.24836601 13.0439876,5.54759432 13.0439876,4.68314862 L13.0439876,3.64488017 L13.0439876,3.64488017 Z" id="矩形" fill="#88A8F0"></path>
                    </g>
                    <g id="编组-10" transform="translate(5.217595, 52.069717)">
                        <rect id="矩形" fill="#FFFFFF" opacity="0.601832799" x="0" y="0" width="34.9578867" height="20.8278867" rx="2.60869565"></rect>
                        <path d="M13.0439876,0 L21.9138991,0 L21.9138991,1.03826845 C21.9138991,1.90271414 21.2131274,2.60348584 20.3486817,2.60348584 L14.609205,2.60348584 C13.7447593,2.60348584 13.0439876,1.90271414 13.0439876,1.03826845 L13.0439876,0 L13.0439876,0 Z" id="矩形" fill="#88A8F0"></path>
                    </g>
                    <g id="编组-9" transform="translate(5.217595, 76.021786)">
                        <rect id="矩形" fill="#FFFFFF" opacity="0.601832799" x="0" y="0" width="34.9578867" height="20.8278867" rx="2.60869565"></rect>
                        <path d="M13.0439876,0 L21.9138991,0 L21.9138991,1.03826845 C21.9138991,1.90271414 21.2131274,2.60348584 20.3486817,2.60348584 L14.609205,2.60348584 C13.7447593,2.60348584 13.0439876,1.90271414 13.0439876,1.03826845 L13.0439876,0 L13.0439876,0 Z" id="矩形" fill="#88A8F0"></path>
                    </g>
                    <g id="打印机" transform="translate(12.522228, 0.000000)">
                        <path d="M15.0289959,0 L33.9210056,0 C34.7854513,7.29382322e-16 35.486223,0.700771696 35.486223,1.56521739 C35.486223,1.82096049 35.4235574,2.07280798 35.3037078,2.29872965 L31.8273297,8.85185185 L31.8273297,8.85185185 L9.39167105,8.85185185 L13.6462938,0.831705128 C13.9177718,0.319957401 14.449698,-1.86059985e-16 15.0289959,0 Z" id="矩形" fill="#88A8F0"></path>
                        <rect id="矩形" fill="#88A8F0" x="0" y="8.85185185" width="40.1754817" height="11.4553377" rx="2.60869565"></rect>
                        <rect id="矩形" fill="#91D6FF" x="0" y="8.85185185" width="30.7838107" height="11.4553377" rx="2.60869565"></rect>
                        <rect id="矩形" fill="#88A8F0" x="4.17407602" y="15.620915" width="22.4356586" height="2.08278867" rx="1.04139434"></rect>
                        <ellipse id="椭圆形" fill="#DEF3FF" cx="20.3486206" cy="13.0174292" rx="1" ry="1"></ellipse>
                        <rect id="矩形" fill="#DEF3FF" x="21.9138991" y="12.496732" width="4.69583553" height="1.04139434" rx="0.520697168"></rect>
                        <polygon id="路径" fill="#FFFFFF" points="31.4662721 4.68627451 29.2185322 8.85185185 11.4787091 8.85185185 13.726449 4.68627451"></polygon>
                        <path d="M7.82639254,16.1416122 L25.5662156,16.1416122 C24.8538064,17.4801516 24.2121129,18.6785355 23.6411351,19.7367637 C23.0701574,20.794992 21.9726525,21.5058311 20.3486206,21.869281 L2.60879751,21.869281 C4.13744169,21.6462441 5.2251333,20.935405 5.87187233,19.7367637 C6.51861136,18.5381224 7.1701181,17.3397386 7.82639254,16.1416122 Z" id="矩形" fill="#FFFFFF"></path>
                        <rect id="矩形" fill="#DEF3FF" x="9.1307913" y="17.1830065" width="3.13055702" height="1" rx="0.260869565"></rect>
                        <rect id="矩形" fill="#DEF3FF" x="14.3483863" y="17.1830065" width="3.13055702" height="1" rx="0.260869565"></rect>
                        <rect id="矩形" fill="#DEF3FF" x="19.0442219" y="17.1830065" width="3.13055702" height="1" rx="0.260869565"></rect>
                        <rect id="矩形" fill="#DEF3FF" x="8.34815205" y="18.745098" width="3.13055702" height="1" rx="0.260869565"></rect>
                        <rect id="矩形" fill="#DEF3FF" x="13.0439876" y="18.745098" width="7.82639254" height="1" rx="0.260869565"></rect>
                        <rect id="矩形" fill="#DEF3FF" x="7.82639254" y="19.7864924" width="3.13055702" height="1" rx="0.260869565"></rect>
                        <rect id="矩形" fill="#DEF3FF" x="12.5222281" y="19.7864924" width="3.65231652" height="1" rx="0.260869565"></rect>
                    </g>
                </g>
                <g id="梯子" transform="translate(108.501611, 121.843137)">
                    <path d="M68.8230447,7.44991744 L70.7810149,8.1709976 L31.442,114.552917 L29.217,114.552917 L36.149,95.8079174 L9.155,95.8079174 L2.224,114.552917 L0,114.552917 L39.6045126,7.44991744 L41.5624828,8.1709976 L39.577,13.5379174 L66.572,13.5379174 L68.8230447,7.44991744 Z M42.118,79.6659174 L15.124,79.6659174 L9.733,94.2459174 L36.727,94.2459174 L42.118,79.6659174 Z M48.087,63.5249174 L21.093,63.5249174 L15.702,78.1039174 L42.696,78.1039174 L48.087,63.5249174 Z M54.056,47.3829174 L27.062,47.3829174 L21.671,61.9629174 L48.665,61.9629174 L54.056,47.3829174 Z M60.025,31.2409174 L33.031,31.2409174 L27.64,45.8209174 L54.634,45.8209174 L60.025,31.2409174 Z M65.994,15.0999174 L39,15.0999174 L33.609,29.6789174 L60.603,29.6789174 L65.994,15.0999174 Z" id="形状结合" fill="#91D6FF"></path>
                    <path d="M92.684298,7.44991744 L132.288834,114.552917 L130.063834,114.552917 L123.132834,95.8079174 L98.2258337,95.8079174 L105.157834,114.552917 L102.932834,114.552917 L63.5948337,8.1709976 L65.5528038,7.44991744 L67.8028337,13.5379174 L92.7108337,13.5379174 L90.7263278,8.1709976 L92.684298,7.44991744 Z M117.163834,79.6659174 L92.2568337,79.6659174 L97.6478337,94.2459174 L122.554834,94.2459174 L117.163834,79.6659174 Z M111.194834,63.5249174 L86.2878337,63.5249174 L91.6788337,78.1039174 L116.585834,78.1039174 L111.194834,63.5249174 Z M105.225834,47.3829174 L80.3188337,47.3829174 L85.7098337,61.9629174 L110.616834,61.9629174 L105.225834,47.3829174 Z M99.2568337,31.2409174 L74.3498337,31.2409174 L79.7408337,45.8209174 L104.647834,45.8209174 L99.2568337,31.2409174 Z M93.2878337,15.0999174 L68.3808337,15.0999174 L73.7718337,29.6789174 L98.6788337,29.6789174 L93.2878337,15.0999174 Z" id="形状结合" fill="#DEF3FF"></path>
                    <rect id="矩形" fill="#DEF3FF" x="39.5399787" y="1.41824743e-14" width="53.2194693" height="8.33115468"></rect>
                    <rect id="矩形" fill="#91D6FF" x="39.5399787" y="1.41824743e-14" width="31.3055702" height="8.33115468"></rect>
                </g>
                <g id="矩形" transform="translate(318.110172, 115.529655) rotate(-17.000000) translate(-318.110172, -115.529655) ">
                    <use fill="black" fill-opacity="1" filter="url(#filter-29)" xlink:href="#path-28"></use>
                    <use fill="#FFFFFF" fill-rule="evenodd" xlink:href="#path-28"></use>
                </g>
                <g id="男人-站立" transform="translate(281.204007, 92.736807)">
                    <g id="身子" transform="translate(0.000000, 2.042331)">
                        <path d="M45.8375216,11.1392585 L52.4564136,11.1392585 C52.2376384,12.5835367 52.2376384,14.2398496 52.4564136,16.1081972 C52.6751888,17.9765448 54.5262203,19.4023532 58.0095081,20.3856223 C54.4232743,21.6314635 51.6487756,22.2543841 49.6860122,22.2543841 C47.7232488,22.2543841 46.0968463,21.7735178 44.8068048,20.8117854 L45.8375216,18.8874919 L45.8375216,11.1392585 Z" id="矩形" fill="#FCBCBB"></path>
                        <path d="M47.0513279,15.4555223 C50.410448,15.4555223 52.7054442,13.0811908 53.1123398,8.28286261 C53.5192355,3.48453445 51.547119,-0.206035564 47.4488517,0.00893345614 C43.3505843,0.223902476 41.0718568,3.18738052 41.0718568,7.50919347 C41.0718568,8.59083043 41.8577011,10.438639 42.0316942,11.4309858 C42.562658,14.4592673 43.6203476,15.1447033 44.8068048,15.5684855 C45.3168217,15.7506548 46.4374438,15.4555223 47.0513279,15.4555223 Z" id="椭圆形" fill="#FCBCBB"></path>
                        <path d="M26.0470041,37.0091197 L35.435498,24.7908633 C36.0900996,23.9389598 37.1034423,23.4396592 38.1777992,23.4396592 L38.6899009,23.4396592 C39.9658849,23.4396592 41.0938485,24.26881 41.4746078,25.4866595 L41.5739393,25.8043689 C41.9125522,26.8874145 41.6983163,28.0676676 41.0006645,28.9626136 L31.2760722,41.4372963 C30.1984341,42.8196878 28.2041861,43.0667392 26.8217947,41.9891011 C26.7590461,41.9401857 26.6981591,41.888928 26.6392628,41.8354368 L26.4641545,41.6763986 C25.1317209,40.4662461 24.9502966,38.4363831 26.0470041,37.0091197 Z" id="路径-31" fill="#FCBCBB"></path>
                        <path d="M10.4819809,40.8485176 C10.9384811,40.7127959 16.6876774,39.1114821 27.7295699,36.0445761 C29.5160778,35.578677 31.4078507,36.8214993 31.8747004,38.6043696 C31.8899333,38.6625434 31.9035878,38.7211175 31.9156489,38.7800277 C32.2719412,40.5202806 31.1471413,42.2192782 29.403338,42.5748451 C29.3078261,42.5943203 29.2114779,42.6094604 29.1145906,42.6202188 C22.9441424,43.6307464 16.5585525,44.2125275 9.95782084,44.3655619 C9.43912024,44.0307016 9.2656693,43.342914 9.2656693,42.8286607 C9.2656693,42.3144073 9.79723068,41.0521001 10.4819809,40.8485176 Z" id="路径-31" fill="#FCBCBB"></path>
                        <path d="M48.8731857,33.0036297 C49.2005667,32.9057408 52.2825785,31.558411 59.4683762,30.2943071 C61.347697,29.9637027 64.9192872,29.6001678 70.183147,29.2037025 C71.9669146,28.7356896 75.1997145,30.8612058 75.6644505,32.6468164 C75.6796145,32.7050796 75.6932025,32.763745 75.7051995,32.8227482 C76.0596001,34.5657486 75.3522614,36.1104925 73.1944382,36.6259656 C71.0366151,37.1414387 60.2711641,38.0615003 50.7616644,38.0299827 C49.5462709,37.8219382 47.8104465,36.256061 47.6386679,35.1568788 C47.4668894,34.0576965 48.1894674,33.2080656 48.8731857,33.0036297 Z" id="路径-31" fill="#FCBCBB" transform="translate(61.702610, 33.584397) rotate(-113.000000) translate(-61.702610, -33.584397) "></path>
                        <path d="M73.8443649,34.0462663 C77.2223828,34.0497998 80.6772506,33.7902696 81.3762091,35.6470583 C81.9517948,37.1761063 80.3341165,38.8262658 77.8198685,39.456389 C75.3056205,40.0865122 69.4038614,39.3732422 63.4398619,38.3233049 C62.2238898,38.1133366 60.309776,36.6804951 61.4556,35.5914921 C62.601424,34.5024892 71.1840084,34.0434834 73.8443649,34.0462663 Z" id="路径-31" fill="#FCBCBB" transform="translate(71.298070, 36.864426) rotate(-240.000000) translate(-71.298070, -36.864426) "></path>
                        <path d="M3.51542291,35.4814966 C3.60391035,35.0553666 3.8577753,34.9000482 4.27701776,35.0155416 C4.7498523,36.0494056 5.40716257,37.0301776 6.24894858,37.9578576 C7.33755228,38.62608 8.61072642,39.6191057 10.068471,40.9369347 L11.7961764,40.9369347 L11.7961764,44.3655619 L5.76926186,44.3655619 L4.14305792,43.8815097 C3.10456533,42.7981885 2.34502331,41.9519085 1.86443188,41.3426698 C1.38384044,40.7334311 0.762363152,39.8379239 0,38.656148 L0.198136635,37.7498643 C1.12727819,37.8026276 1.97415149,38.0533171 2.73875652,38.5019327 C3.19025333,38.605657 3.65835379,38.6570621 4.14305792,38.656148 C4.00522712,37.7982103 3.90112483,37.2281417 3.83075104,36.9459422 C3.64558711,36.2034331 3.45906482,35.7529009 3.51542291,35.4814966 Z" id="路径-32" fill="#FCBCBB"></path>
                        <path d="M73.5167862,29.875667 L74.5200933,28.0669901 L74.3492959,25.7609767 C74.3863521,23.9993552 74.4432845,22.5766214 74.5200933,21.4927754 C74.583239,20.6017278 74.6699427,19.7175332 74.7802045,18.8401915 C74.8052725,18.6411907 74.9868757,18.500138 75.1858838,18.5251487 C75.239455,18.5318814 75.290851,18.5504742 75.3363308,18.5795739 C75.641473,18.774815 75.8449055,19.0947629 75.8922616,19.4539123 L76.258329,22.2301713 L76.258329,22.2301713 L80.5485965,16.4021743 C80.6667799,16.2416312 80.8864831,16.1950783 81.0596219,16.2938932 C81.2451683,16.3997894 81.3533134,16.6029177 81.3375778,16.8159761 C81.2952253,17.3894227 81.2528729,17.9628692 81.2105205,18.5363158 C81.2105205,18.5363158 80.9301519,19.5218023 80.3694148,21.4927754 L80.1525566,24.4281439 L76.6218735,31.923087 L73.5167862,29.875667 Z" id="路径-33" fill="#FCBCBB"></path>
                        <path d="M42.2034879,129.285786 L42.0192881,131.608663 L42.0192881,131.608663 C40.9878599,133.948851 40.1984782,135.393962 39.651143,135.943997 C38.8301402,136.769049 36.0483758,138.269442 35.1005699,138.560934 C34.5228654,138.738603 33.33526,139.036135 31.5377538,139.453529 C31.2663464,139.516561 31.0974159,139.787672 31.1604391,140.059082 C31.1626994,140.068816 31.1652483,140.07848 31.1680826,140.088063 C31.2629596,140.408832 31.5326003,140.647312 31.8625596,140.70228 C32.804865,140.859269 33.8009126,140.937763 34.8507024,140.937763 C36.7309341,140.937763 39.953781,139.684225 41.4578686,139.821167 C42.9619562,139.95811 43.2232659,140.60203 45.0305858,140.60203 C45.0305858,140.60203 45.0305858,140.60203 45.0305858,140.60203 C46.3109993,140.60203 47.3489795,139.564049 47.3489795,138.283636 C47.3489795,138.217495 47.3461491,138.151385 47.340484,138.085487 L46.9895068,133.994009 L46.9895068,133.994009 L46.9895068,129.540537 C46.9895068,128.247854 45.9784295,127.180953 44.6876112,127.111548 C43.4069548,127.042689 42.30487,128.007293 42.2034879,129.285786 Z" id="路径-34" fill="#FCBCBB"></path>
                        <path d="M61.9052016,129.676575 L62.8416997,134.951834 C62.9654193,135.648742 62.9614962,136.36233 62.8301216,137.057836 L62.4841722,138.889314 C62.3924873,139.3747 62.7116448,139.842508 63.1970305,139.934193 C63.2517625,139.944531 63.3073407,139.949734 63.3630406,139.949734 C64.144184,139.949734 64.9253274,139.949734 65.7064707,139.949734 C66.5787306,139.949734 67.4509905,139.949734 68.3232504,139.949734 C68.7184255,139.949734 69.0387783,139.629382 69.0387783,139.234206 C69.0387783,139.084069 68.9915512,138.937735 68.9037834,138.815922 L67.6890798,137.130045 C67.1624733,136.399172 66.8791106,135.521168 66.8791106,134.620341 L66.8791106,129.377952 C66.8791106,127.961907 65.7311798,126.813976 64.3151354,126.813976 C64.262299,126.813976 64.2094752,126.81561 64.1567397,126.818874 L64.1534899,126.819075 C62.8105268,126.902198 61.7892249,128.05827 61.8723485,129.401233 C61.8780633,129.493563 61.8890321,129.585492 61.9052016,129.676575 Z" id="路径-36" fill="#FCBCBB"></path>
                        <path d="M44.6381289,94.2249375 C47.3669481,94.2249375 49.6973348,96.1943592 50.1522838,98.8849866 C50.5388519,101.171156 50.6254459,103.506626 50.4120659,105.891397 C50.0718408,109.693812 48.9277383,117.643553 46.9797584,129.74062 C46.8047034,130.8279 45.7813594,131.567378 44.6940836,131.392295 C44.6174854,131.379961 44.5416722,131.363166 44.467031,131.341997 C43.1779926,130.976417 42.2637851,129.832023 42.1919466,128.494074 L40.5817429,98.5049658 C40.4614556,96.2646857 42.1800494,94.3510677 44.4203295,94.2307805 C44.492864,94.2268859 44.5654899,94.2249375 44.6381289,94.2249375 Z" id="矩形" stroke="#979797" stroke-width="0.5"></path>
                        <path d="M55.7419946,54.127503 L57.3073193,53.6288478 C60.0633659,52.7508721 63.009323,54.2733494 63.8872987,57.029396 C63.9887834,57.3479657 64.0595296,57.6755212 64.098578,58.0075769 C64.5380872,61.7459197 64.6525585,64.9851055 64.4419918,67.7251343 C64.1521875,71.4962537 63.0307645,79.4822274 61.0777228,91.6830554 C60.7357914,93.81898 58.7271084,95.273321 56.5911801,94.9314133 C56.5585326,94.9261873 56.5259525,94.920548 56.4934478,94.914497 C54.1922853,94.4861141 52.5023538,92.5094955 52.4368456,90.1697157 L51.5914885,59.9757949 C51.5171117,57.3192545 53.2097962,54.9341689 55.7419946,54.127503 Z" id="矩形" transform="translate(58.005094, 73.708375) rotate(-10.000000) translate(-58.005094, -73.708375) "></path>
                        <path d="M62.7107795,93.918894 C65.4347641,93.9194706 67.7611822,95.8846077 68.2171626,98.5701569 C68.6115514,100.89299 68.7015252,103.266235 68.4870843,105.689893 C68.1483748,109.51806 67.1826325,117.590436 65.5898572,129.907021 C65.4468043,131.013357 64.4339616,131.794237 63.3276273,131.651166 C63.2251144,131.637909 63.1237704,131.616803 63.0244883,131.588033 C61.6672541,131.194733 60.7027951,129.992031 60.6137356,128.58177 L58.6948149,98.1955637 C58.5547784,95.9780781 60.2388837,94.0669287 62.4563693,93.9268922 C62.5410671,93.9215434 62.625913,93.918876 62.7107795,93.918894 Z" id="矩形" transform="translate(63.512530, 113.080795) rotate(-6.000000) translate(-63.512530, -113.080795) "></path>
                        <ellipse id="椭圆形" stroke="#979797" stroke-width="0.5" cx="44.4958543" cy="94.9863796" rx="3.90574257" ry="3.89779023"></ellipse>
                        <ellipse id="椭圆形" stroke="#979797" stroke-width="0.5" cx="61.0728991" cy="94.9863796" rx="3.90574257" ry="3.89779023"></ellipse>
                        <path d="M44.1928081,18.8427659 L39.6853655,21.0634978 C36.9642538,22.40413 35.6833478,25.5740401 36.7091859,28.4287554 C39.0718408,35.0035815 40.5260644,39.9285384 41.0718568,43.2036262 C41.4411713,45.4197394 41.608734,47.4309274 41.5745448,49.2371902 L41.5745441,49.2371902 C41.5192274,52.1596472 43.590515,54.6913347 46.4660323,55.2159445 C47.7476966,55.4497715 49.1009869,55.566685 50.5259033,55.566685 C52.4235961,55.566685 54.187821,55.2309138 55.818578,54.5593713 L55.8185797,54.5593754 C58.2894678,53.5418686 59.781692,51.0047356 59.4701991,48.3507612 C58.9175077,43.6417317 58.6411619,40.2179393 58.6411619,38.079384 C58.6411619,35.8784885 58.9338538,31.8074818 59.5192375,25.8663639 C59.749152,23.5328291 58.5796797,21.2836078 56.5374075,20.1314926 L54.5285383,18.9982212 C53.6344671,18.4938452 52.6253249,18.2288304 51.5987975,18.2288304 L46.8280596,18.2288304 C45.9142023,18.2288304 45.0125727,18.4388833 44.1928081,18.8427659 Z" id="路径-38"></path>
                    </g>
                    <g id="衣服" transform="translate(28.384668, 0.000000)">
                        <g id="路径-41" transform="translate(22.915449, 23.072163)">
                            <mask id="mask-32" fill="white">
                                <use xlink:href="#path-31"></use>
                            </mask>
                            <use id="蒙版" fill="url(#linearGradient-30)" transform="translate(8.614066, 9.483926) scale(-1, 1) rotate(-7.000000) translate(-8.614066, -9.483926) " xlink:href="#path-31"></use>
                        </g>
                        <g id="路径-40" transform="translate(20.156452, 52.302461)">
                            <mask id="mask-34" fill="white">
                                <use xlink:href="#path-33"></use>
                            </mask>
                            <use id="蒙版" fill="#343840" xlink:href="#path-33"></use>
                            <path d="M6.23544046,6.59445198 C6.8538687,12.7520727 6.8538687,17.3187007 6.23544046,20.294336 C4.30191409,29.5977101 5.72352796,36.3613358 6.23544046,39.5747855 C6.99295174,44.3299428 6.72504267,48.6927105 5.43171325,52.6630888 L-2.66365645,5.0858373 L6.23544046,6.59445198 Z" fill="#000000" opacity="0.35" mask="url(#mask-34)"></path>
                        </g>
                        <path d="M9.63046568,54.9332635 C9.84820944,72.5033353 10.0988185,85.0564945 10.3822929,92.5927409 C10.7191205,101.547396 10.5373974,105.501286 10.7742856,111.111595 C11.3102217,123.804367 11.6212749,131.199157 11.7074452,133.295965 C12.6519674,134.336071 13.9323924,134.856124 15.5487199,134.856124 C17.1650474,134.856124 18.5650681,134.529399 19.7487822,133.875948 C21.2874757,119.67021 22.1277418,110.974767 22.2695803,107.789619 C22.4823381,103.011896 21.3073029,99.7851657 21.3073029,96.5009819 C21.3073029,94.311526 22.486255,86.0634402 24.844159,71.7567245 C25.875981,69.4117442 26.391892,66.7081042 26.391892,63.6458044 C26.391892,59.7588456 25.6319443,56.8546653 24.1120488,54.9332635 L23.4784736,52.6825837 L9.63046568,54.9332635 Z" id="路径-29" fill="#343840"></path>
                        <path d="M12.7557843,136.005102 C13.577893,137.213395 14.594652,137.817542 15.8060616,137.817542 C17.0174711,137.817542 17.9469811,137.145721 18.5945917,135.802079 L19.2327255,137.462319 C19.3901697,137.871944 19.4709077,138.30704 19.4709077,138.74588 L19.4709077,141.906802 C19.4709077,142.499565 18.9903786,142.980094 18.3976158,142.980094 L3.1361021,142.980094 C2.65197964,142.980094 2.21396677,142.692945 2.02088824,142.248991 C1.85732087,141.872893 2.0296108,141.435408 2.40570856,141.271841 C2.41915261,141.265994 2.43276686,141.260547 2.44654578,141.255539 C3.71643733,140.790539 4.84132011,140.287795 5.82119412,139.747306 C6.34388837,139.458993 8.06945617,138.629867 8.92093302,138.082001 C9.80213207,137.51501 11.5519659,136.601253 11.938801,136.137672 C12.3233293,135.676855 12.5956571,135.632665 12.7557843,136.005102 Z" id="路径-35" fill="#343840"></path>
                        <path d="M35.7357195,135.565354 C35.9708253,135.518156 36.1811025,135.494557 36.3665512,135.494557 C36.7212727,135.494557 37.180437,135.580899 37.744044,135.753582 C38.448393,135.969401 39.0452273,136.443314 39.4150353,137.080438 L41.8045158,141.197159 C41.9985601,141.531468 42.1007628,141.91114 42.1007628,142.297684 C42.1007628,142.623607 41.8365502,142.887819 41.5106274,142.887819 L33.4890553,142.887819 C33.1671902,142.887819 32.9034154,142.632376 32.8930889,142.310676 L32.8400752,140.659136 C32.8225915,140.114468 32.8962847,139.57071 33.0581077,139.050342 L33.5208457,137.562336 C33.8382513,136.541634 34.6877144,135.775743 35.7357195,135.565354 Z" id="路径-37" fill="#343840"></path>
                        <g id="路径-30" transform="translate(8.568012, 19.811230)">
                            <mask id="mask-37" fill="white">
                                <use xlink:href="#path-36"></use>
                            </mask>
                            <use id="蒙版" fill="url(#linearGradient-35)" xlink:href="#path-36"></use>
                            <path d="M5.66805324,10.1768617 C5.2982867,10.8740397 2.98615759,15.9424792 1.58777736,19.8174981 C-0.316510369,25.0944255 -0.75637636,31.3097664 -0.75637636,31.0862574 C-0.75637636,30.8278315 -0.99489499,25.1838085 -1.47193225,14.1541883 C3.87026316,10.404916 6.25025832,9.07914048 5.66805324,10.1768617 Z" fill="#000000" opacity="0.2" mask="url(#mask-37)"></path>
                        </g>
                        <path d="M0.00145377233,34.5047126 C2.72270639,30.4554185 5.2541256,27.2098643 7.59571142,24.7680501 C11.1080901,21.1053287 18.2181878,25.4078023 13.8682729,31.2736587 C11.2521724,34.801468 9.08470391,37.6920792 7.36586762,39.9454922 L7.3658824,39.9455034 C7.01063525,40.4112363 6.42322852,40.6369854 5.84750736,40.5290374 C4.40733397,40.2590043 3.12557357,39.6385 2.00222615,38.6675246 C0.631440949,37.4826742 -0.0354831786,36.0950702 0.00145377233,34.5047126 Z" id="蒙版" fill="url(#linearGradient-38)"></path>
                        <path d="M11.3938541,4.78763024 C12.643653,2.56302807 13.3557621,1.18727614 15.1968698,1.05603871 C16.7491141,0.945391971 16.9906454,-0.241106318 20.1564516,0.0441331987 C21.4715098,0.162620103 23.6061213,1.09555352 24.0133753,1.89829085 C24.3738416,2.60880487 25.8347207,5.81967884 25.9920443,6.60350035 C26.391892,8.59563121 24.0910659,11.5195196 24.0133753,14.1350068 C23.9839382,15.1260212 21.1184022,15.1258824 20.3252428,15.1812238 C17.8322091,15.3551711 17.3993904,14.8477198 16.4776004,12.4742884 C16.0855324,11.464789 15.9518588,11.0054001 15.1968698,10.2790509 C14.4658286,9.57574112 14.4726853,12.4768053 13.7299316,12.0450846 C13.28196,11.7847039 13.4231088,9.72084014 13.096084,9.30708706 C12.661586,8.75735847 12.688567,10.6866819 12.643653,10.0632117 C12.5926187,9.35478331 10.8569704,9.02834844 11.088265,7.03495024 C11.2424614,5.70601812 11.3443244,4.95691145 11.3938541,4.78763024 Z" id="路径-39" fill="#484141"></path>
                    </g>
                </g>
                <g id="编组-4" transform="translate(0.000000, 107.457103)">
                    <g id="编组-18">
                        <path d="M11.5654328,41.3570213 C16.8734542,45.8758993 19.5293873,50.096529 19.5332322,54.0189104 C19.5370698,57.9412919 17.4999744,61.8302925 13.4219457,65.6859122 C9.33641897,61.8850473 7.29170158,57.9920471 7.28779354,54.0069115 C7.28389616,50.021776 8.70977592,45.8051459 11.5654328,41.3570213 Z" id="矩形" fill="#88A8F0" transform="translate(13.410513, 53.521467) rotate(-53.000000) translate(-13.410513, -53.521467) "></path>
                        <path d="M15.7999836,27.5564885 C18.6016294,30.4797164 20.0043745,33.902521 20.008219,37.8249025 C20.0120571,41.7472839 17.7294823,45.5206152 13.1604947,49.1448965 C10.711803,46.7028879 9.485504,43.4893158 9.48159768,39.5041803 C9.47769858,35.5190447 11.5838272,31.5364808 15.7999836,27.5564885 Z" id="矩形" fill="#88A8F0" transform="translate(14.744908, 38.350693) rotate(-53.000000) translate(-14.744908, -38.350693) "></path>
                        <path d="M48.7196964,25.5253605 C50.5432671,28.0656895 51.4569742,31.2970448 51.4608177,35.2194262 C51.4646567,39.1418076 48.1435237,43.3866298 41.4974186,47.9538929 C39.6739093,45.476318 38.7602021,42.2449628 38.7562971,38.2598272 C38.7523967,34.2746917 42.0735298,30.0298694 48.7196964,25.5253605 Z" id="矩形" fill="#88A8F0" transform="translate(45.108557, 36.739627) scale(-1, 1) rotate(-53.000000) translate(-45.108557, -36.739627) "></path>
                        <path d="M55.5247577,39.2943155 C56.9579502,42.3564412 57.6754225,45.8499398 57.6771748,49.7748114 C57.678926,53.699683 54.6361658,57.744585 48.5488942,61.9095172 C46.6094365,59.3035126 45.6388175,56.0066775 45.6370372,52.0190119 C45.6352579,48.0313464 48.9311648,43.7897809 55.5247577,39.2943155 Z" id="矩形" fill="#88A8F0" transform="translate(51.657106, 50.601916) scale(-1, 1) rotate(-77.000000) translate(-51.657106, -50.601916) "></path>
                        <path d="M26.586095,68.7625025 C26.586095,68.7625025 24.7599368,62.774485 21.6293797,58.6089077 C19.5423417,55.8318561 16.4987446,53.1415874 12.4985884,50.5381016" id="路径-20" stroke="#6F8CCF" stroke-width="0.52173913"></path>
                        <path d="M28.9340128,68.7625025 C28.9340128,68.7625025 26.586095,58.6089077 23.7164178,49.4967073 C21.8032996,43.421907 17.8901033,38.5620667 11.9768289,34.9171866" id="路径-20" stroke="#6F8CCF" stroke-width="0.52173913"></path>
                        <path d="M48.3387326,68.7625025 C48.3387326,68.7625025 47.0343338,59.650302 44.1646565,50.5381016 C42.2515384,44.4633013 38.3920959,37.8023606 32.5863293,30.5552796" id="路径-20" stroke="#6F8CCF" stroke-width="0.52173913" transform="translate(40.462531, 49.658891) scale(-1, 1) translate(-40.462531, -49.658891) "></path>
                        <path d="M58.152545,68.2418053 C58.152545,68.2418053 55.2828677,61.2123935 49.8043929,56.0054219 C46.1520764,52.5341074 40.5866417,49.4099244 33.1080888,46.6328728" id="路径-20" stroke="#6F8CCF" stroke-width="0.52173913" transform="translate(45.630317, 57.437339) scale(-1, 1) translate(-45.630317, -57.437339) "></path>
                        <path d="M29.4557723,68.7625025 C29.4557723,68.7625025 28.9340128,54.1829818 25.542576,37.5206724 C23.2816182,26.4124662 19.6293016,15.8249571 14.5856265,5.75814517" id="路径-20" stroke="#6F8CCF" stroke-width="0.52173913"></path>
                        <path d="M41.3199563,69.2831996 C41.3199563,69.2831996 42.3634753,60.952045 40.537317,45.3311299 C39.3198782,34.9171866 36.3097281,24.5993003 31.5068669,14.3774712" id="路径-20" stroke="#6F8CCF" stroke-width="0.52173913" transform="translate(36.561823, 41.830335) scale(-1, 1) translate(-36.561823, -41.830335) "></path>
                        <path d="M19.5423417,68.7625025 C16.8468697,67.9423694 13.893147,66.534671 10.6811738,64.5394073 C13.9798216,63.6491037 16.9335442,63.3775177 19.5423417,63.7246491 C23.455538,64.2453463 25.5058597,65.1176223 28.1330154,66.6797138 C29.8844525,67.7211081 31.0090697,69.1103033 31.5068669,70.8472993 C26.2259888,70.2775678 22.2378138,69.5826355 19.5423417,68.7625025 Z" id="路径-21" fill="#7192DE"></path>
                        <path d="M39.3510743,65.1453957 C37.6825606,63.7881075 35.6914399,61.9564097 33.3777122,59.650302 C37.0118172,59.6091938 40.1314869,60.032255 42.7367212,60.9194857 C45.3419554,61.8067164 48.4616251,64.5952904 52.0957301,69.2852078 C49.3709501,70.4184477 47.4035543,70.7839117 46.1935428,70.3815999 C44.4585281,69.8047319 41.8538447,67.1813279 39.3510743,65.1453957 Z" id="路径-21" fill="#7192DE" transform="translate(42.736721, 65.093639) scale(-1, 1) translate(-42.736721, -65.093639) "></path>
                        <path d="M25.5603769,65.0936394 C25.5603769,62.7673179 25.1362373,59.4211804 24.287958,55.055227 C28.0645147,58.0264471 30.4708177,61.4752064 31.5068669,65.4015051 C32.5429161,69.3278038 33.0766567,71.1430685 33.1080888,70.8472993 L25.9797558,70.8472993 C25.7001699,69.3378476 25.5603769,67.4199609 25.5603769,65.0936394 Z" id="路径-22" fill="#88A8F0"></path>
                        <path d="M31.5068669,68.5226462 C31.5068669,68.2418053 32.5954084,56.2866233 37.8111977,51.0953847 C39.0078675,57.4373391 37.2158338,68.0266919 36.653034,69.2831996 C36.2778342,70.1208714 34.6437187,70.2734514 31.7506876,69.7409394 C31.5881405,69.1159712 31.5068669,68.7098734 31.5068669,68.5226462 Z" id="路径-23" fill="#7192DE"></path>
                        <g id="编组-14" transform="translate(9.614979, 0.000000)"></g>
                        <g id="编组-14" transform="translate(28.913858, 14.745320) scale(-1, 1) translate(-28.913858, -14.745320) translate(11.285751, 1.474545)">
                            <path d="M6.85043643,10.8991031 C7.61548605,10.8996443 8.23524259,11.5202782 8.2347014,12.2853279 C8.23469231,12.2981871 8.23450415,12.3110455 8.234137,12.3238995 L7.93266781,22.8782014 C7.91608496,23.4587597 7.44045593,23.9206701 6.85966093,23.9202592 C6.27840113,23.919848 5.80259704,23.4577675 5.78517912,22.8767686 L5.46874965,12.3218254 C5.44588912,11.5592805 6.04552175,10.9225836 6.80806663,10.8997231 C6.82218589,10.8992998 6.83631082,10.8990931 6.85043643,10.8991031 Z" id="矩形" fill="url(#linearGradient-39)" transform="translate(6.850436, 17.409546) rotate(-22.000000) translate(-6.850436, -17.409546) "></path>
                            <path d="M31.1213498,-0.0356543468 C31.8864689,-0.0350403129 32.5062227,0.585709023 32.5056086,1.3508281 C32.5055984,1.36359781 32.5054116,1.37636678 32.5050483,1.38913133 L32.2046021,11.9450269 C32.1880806,12.5254934 31.7125154,12.9873446 31.131814,12.9868786 C30.5505854,12.9864121 30.0748216,12.5243678 30.057353,11.9434016 L29.7399353,1.38677852 C29.7170137,0.624456409 30.3164163,-0.0121093827 31.0787384,-0.0350309709 C31.0929381,-0.035457931 31.1071436,-0.0356657477 31.1213498,-0.0356543468 Z" id="矩形" fill="url(#linearGradient-40)" transform="translate(31.121350, 6.475459) scale(-1, 1) rotate(-26.000000) translate(-31.121350, -6.475459) "></path>
                        </g>
                    </g>
                    <g id="编组-2" transform="translate(15.368266, 69.579934)">
                        <mask id="mask-42" fill="white">
                            <use xlink:href="#path-41"></use>
                        </mask>
                        <use id="蒙版" fill="#91D6FF" xlink:href="#path-41"></use>
                        <path d="M6.17617396,-1.10983317 C5.75406925,11.2571316 6.88772189,22.3653164 9.57713189,32.2147212 C11.6240973,39.7113061 11.4563449,48.9861808 9.07387494,60.0393452 C8.05843327,62.8377095 -8.6090318,62.7193987 -8.6090318,61.3894769 C-8.6090318,60.5028623 -7.46047173,39.1718748 -5.16335159,-2.60348584 L6.17617396,-1.10983317 Z" id="路径-25" fill="#FFFFFF" opacity="0.348256" mask="url(#mask-42)"></path>
                    </g>
                </g>
            </g>
        </g>
    </g>
</svg>