<?xml version="1.0" encoding="UTF-8"?>
<svg viewBox="0 0 28 28" version="1.1" xmlns="http://www.w3.org/2000/svg" xmlns:xlink="http://www.w3.org/1999/xlink">
    <defs>
        <linearGradient x1="0%" y1="0%" x2="0%" y2="98.259775%" id="warning-icon-1">
            <stop stop-color="#FFFFFF" offset="0%"></stop>
            <stop stop-color="#FFFFFF" stop-opacity="0.64" offset="100%"></stop>
        </linearGradient>
        <linearGradient x1="0%" y1="0%" x2="0%" y2="98.259775%" id="warning-icon-2">
            <stop stop-color="#121B2B" stop-opacity="0.1" offset="0%"></stop>
            <stop stop-color="#121B2B" stop-opacity="0.8" offset="100%"></stop>
        </linearGradient>
        
    </defs>
    <circle stroke="currentColor" stroke-width="1.5" fill="currentColor" cx="14" cy="14" r="13.25"></circle>
    <circle fill="url(#warning-icon-2)"  cx="14" cy="14" r="13.25"></circle>
    <path d="M13.9825374,8.99305556 C17.1293417,8.99305556 19.6803306,11.4741442 19.6803306,14.5347222 L19.6803306,19.1527778 C20.204798,19.1527778 20.6299628,19.5662926 20.6299628,20.0763889 C20.6299628,20.5864852 20.204798,21 19.6803306,21 L8.2847443,21 C7.76027692,21 7.33511211,20.5864852 7.33511211,20.0763889 C7.33511211,19.5662926 7.76027692,19.1527778 8.2847443,19.1527778 L8.2847443,14.5347222 C8.2847443,11.4741442 10.8357332,8.99305556 13.9825374,8.99305556 Z M13.9605381,12.2605717 L13.931753,12.2999982 L12.0965069,16.0436412 C12.0614832,16.1174467 12.0994256,16.2007144 12.1697974,16.2264202 L12.2155878,16.2344 L13.7811507,16.2309936 L13.7846531,18.5473514 C13.7846531,18.6695563 13.926773,18.7187364 14.0045368,18.6446869 L14.0333219,18.6052604 L15.868568,14.8616174 C15.9035917,14.7878119 15.8656493,14.7045441 15.7952775,14.6788384 L15.7494871,14.6708585 L14.1839242,14.6742649 L14.1804218,12.3579072 C14.1804218,12.2357022 14.0383019,12.1865222 13.9605381,12.2605717 Z M8.17004958,9.37032593 L8.53377981,9.66716882 C8.8351038,9.91308152 8.87440715,10.3500112 8.6215663,10.6430785 C8.36872546,10.9361459 7.91948609,10.9743723 7.6181621,10.7284596 L7.25443187,10.4316167 C6.95310788,10.185704 6.91380453,9.74877431 7.16664538,9.45570696 C7.41948623,9.16263962 7.86872559,9.12441323 8.17004958,9.37032593 Z M20.8333546,9.45570696 C21.0632099,9.72213182 21.0516238,10.1074512 20.8212284,10.3600652 L20.7455681,10.4316167 L20.3818379,10.7284596 C20.0805139,10.9743723 19.6312745,10.9361459 19.3784337,10.6430785 C19.1485784,10.3766537 19.1601645,9.99133433 19.3905599,9.73872027 L19.4662202,9.66716882 L19.8299504,9.37032593 C20.1312744,9.12441323 20.5805138,9.16263962 20.8333546,9.45570696 Z M10.9783051,7.33316776 L11.1789711,7.75170573 C11.3452082,8.09843394 11.1909724,8.51058186 10.8344757,8.67226388 C10.4779791,8.8339459 10.0542196,8.68393632 9.88798253,8.33720811 L9.68731657,7.91867014 C9.52107945,7.57194194 9.67531528,7.15979401 10.0318119,6.998112 C10.3883086,6.83642998 10.812068,6.98643955 10.9783051,7.33316776 Z M17.9947025,6.998112 C18.3214911,7.14632051 18.4783244,7.50498996 18.374149,7.83080799 L18.3391978,7.91867014 L18.1385319,8.33720811 C17.9722947,8.68393632 17.5485353,8.8339459 17.1920387,8.67226388 C16.8652501,8.52405536 16.7084167,8.16538591 16.8125921,7.83956789 L16.8475433,7.75170573 L17.0482092,7.33316776 C17.2144464,6.98643955 17.6382058,6.83642998 17.9947025,6.998112 Z M13.9825374,6.22222222 C14.375888,6.22222222 14.6947616,6.53235831 14.6947616,6.91493056 L14.6947616,7.37673611 C14.6947616,7.75930836 14.375888,8.06944444 13.9825374,8.06944444 C13.5891869,8.06944444 13.2703133,7.75930836 13.2703133,7.37673611 L13.2703133,6.91493056 C13.2703133,6.53235831 13.5891869,6.22222222 13.9825374,6.22222222 Z" fill="url(#warning-icon-1)" fill-rule="nonzero"></path>              
</svg>