<?xml version="1.0" encoding="UTF-8"?>
<svg viewBox="0 0 16 16" version="1.1" xmlns="http://www.w3.org/2000/svg" xmlns:xlink="http://www.w3.org/1999/xlink">
    <title>logo/1</title>
    <defs>
        <linearGradient x1="12.1444646%" y1="0%" x2="87.8555354%" y2="100%" id="linearGradient-1">
            <stop stop-color="#5FD6FF" offset="0%"></stop>
            <stop stop-color="#3D81FF" offset="100%"></stop>
        </linearGradient>
        <linearGradient x1="36.8693979%" y1="93.8758395%" x2="66.5481187%" y2="0.703414983%" id="linearGradient-2">
            <stop stop-color="#FFFFFF" stop-opacity="0" offset="0%"></stop>
            <stop stop-color="#FFFFFF" stop-opacity="0.64" offset="100%"></stop>
        </linearGradient>
        <linearGradient x1="0%" y1="12.8900709%" x2="100%" y2="87.1099291%" id="linearGradient-3">
            <stop stop-color="#6B30D3" offset="0.0265481589%"></stop>
            <stop stop-color="#B2A0FF" offset="100%"></stop>
        </linearGradient>
        <path d="M4.48238273,5.63832216 L5.26566394,5.20196575 C4.99101514,5.32745594 4.72939191,5.47359643 4.48238273,5.63832216 M3.39856044,6.57981633 C2.28122115,7.83154133 1.72652271,9.56362373 2.04040705,11.3441549 L2.04040705,11.3441549 C2.08806155,11.615309 2.15541325,11.8778853 2.23864979,12.1318838 L2.23864979,12.1318838 C2.47231571,12.8446364 2.8392554,13.4867014 3.3061107,14.0344105 L3.3061107,14.0344105 L6.16458675,15.6848449 C6.73659965,16.0150906 7.67237528,16.0150906 8.24438819,15.6848449 L8.24438819,15.6848449 L13.3691536,12.7261355 C13.9411665,12.3958898 14.4089749,11.5854455 14.4089749,10.9249541 L14.4089749,10.9249541 L14.4089749,8.31031025 C14.1678431,8.98716307 13.7958203,9.62462149 13.2962422,10.1821792 L13.2962422,10.1821792 C13.1176967,10.381375 12.9239017,10.5708811 12.7132688,10.7478382 L12.7132688,10.7478382 C11.3981633,11.8511988 9.72962025,12.2545148 8.15829238,12.0001986 L8.15829238,12.0001986 C7.71764706,12.3333035 7.40646314,12.4770613 7.40646314,12.4770613 L7.40646314,12.4770613 C7.35070737,12.5027947 7.27779598,12.5156615 7.20456689,12.5156615 L7.20456689,12.5156615 C7.1313378,12.5156615 7.05810871,12.5027947 7.00267064,12.4770613 L7.00267064,12.4770613 C7.00267064,12.4770613 5.11428146,11.6046662 4.05380988,9.17889303 L4.05380988,9.17889303 C3.61030529,8.16432862 3.50991313,6.77424671 3.49291636,6.4765649 L3.49291636,6.4765649 C3.46114669,6.51055845 3.42953586,6.54502854 3.39856044,6.57981633" id="path-4"></path>
        <linearGradient x1="29.1714533%" y1="67.2761278%" x2="76.2496158%" y2="30.5894517%" id="linearGradient-6">
            <stop stop-color="#FFFFFF" stop-opacity="0" offset="0%"></stop>
            <stop stop-color="#FFFFFF" stop-opacity="0.64" offset="100%"></stop>
        </linearGradient>
        <linearGradient x1="84.6303409%" y1="0%" x2="15.3696591%" y2="100%" id="linearGradient-7">
            <stop stop-color="#00A552" offset="0%"></stop>
            <stop stop-color="#4CD9A3" offset="100%"></stop>
        </linearGradient>
        <path d="M3.90338049,1.55306031 L1.03998014,3.20635393 C0.467967238,3.53659965 0,4.34704393 0,5.00753537 L0,5.00753537 L0,10.9249541 C0,11.5854455 0.467967238,12.3958898 1.03998014,12.7261355 L1.03998014,12.7261355 L3.30595185,14.0344105 C2.83909655,13.4865426 2.47231571,12.8446364 2.23864979,12.1318838 L2.23864979,12.1318838 C2.15541325,11.8778853 2.08806155,11.615309 2.04040705,11.3441549 L2.04040705,11.3441549 C1.72652271,9.56362373 2.28122115,7.83154133 3.39856044,6.57981633 L3.39856044,6.57981633 C3.42953586,6.54502854 3.46114669,6.51055845 3.49291636,6.4765649 L3.49291636,6.4765649 C3.49085133,6.43923554 3.49005709,6.4190618 3.49005709,6.4190618 L3.49005709,6.4190618 C3.48497394,6.29658972 3.56852817,6.14743112 3.67527426,6.08786299 L3.67527426,6.08786299 L4.48238273,5.63832216 C4.72939191,5.47359643 4.99101514,5.32745594 5.26566394,5.20196575 L5.26566394,5.20196575 L7.01029536,4.23013155 C7.1172003,4.17056342 7.29209233,4.17056342 7.39883842,4.23013155 L7.39883842,4.23013155 L10.4642939,5.9377513 C10.4220402,5.74284438 10.3696203,5.55047903 10.3073517,5.36160834 L10.3073517,5.36160834 C9.78204021,3.7680417 8.55938446,2.42164309 6.86034252,1.80308761 L6.86034252,1.80308761 C6.6017374,1.70904939 6.34059072,1.63597915 6.07896749,1.58101762 L6.07896749,1.58101762 C5.6926483,1.50000496 5.30426409,1.46061057 4.92032762,1.46061057 L4.92032762,1.46061057 C4.57689749,1.46061057 4.23664433,1.49206255 3.90338049,1.55306031" id="path-8"></path>
        <linearGradient x1="44.3796256%" y1="93.8758395%" x2="57.0831956%" y2="0.703414983%" id="linearGradient-10">
            <stop stop-color="#FFFFFF" stop-opacity="0.64" offset="0%"></stop>
            <stop stop-color="#FFFFFF" stop-opacity="0" offset="100%"></stop>
        </linearGradient>
    </defs>
    <g id="logo/1" stroke="none" stroke-width="1" fill="none" fill-rule="evenodd">
        <g id="编组" transform="translate(0.800000, 0.000000)">
            <path d="M6.16458675,0.247485728 L3.90338049,1.55306031 C4.6094614,1.42375776 5.34699429,1.42741127 6.07896749,1.58101762 L6.07896749,1.58101762 C6.34059072,1.63597915 6.6017374,1.70904939 6.86034252,1.80308761 L6.86034252,1.80308761 C8.55938446,2.42164309 9.78204021,3.7680417 10.3073517,5.36160834 L10.3073517,5.36160834 C10.3696203,5.55047903 10.4220402,5.74284438 10.4642939,5.9377513 L10.4642939,5.9377513 L10.7337007,6.08786299 C10.8406056,6.14743112 10.924001,6.29658972 10.9190767,6.4190618 L10.9190767,6.4190618 C10.9190767,6.4190618 10.8544254,8.03693224 10.3551651,9.17889303 L10.3551651,9.17889303 C9.72533135,10.6198064 8.80321668,11.512693 8.15829238,12.0001986 L8.15829238,12.0001986 C9.72962025,12.2546736 11.3981633,11.8511988 12.7132688,10.7478382 L12.7132688,10.7478382 C12.9239017,10.5708811 13.1176967,10.381375 13.2962422,10.1821792 L13.2962422,10.1821792 C13.7958203,9.62462149 14.1678431,8.98716307 14.4089749,8.31031025 L14.4089749,8.31031025 L14.4089749,5.00753537 C14.4089749,4.34704393 13.9411665,3.53659965 13.3691536,3.20635393 L13.3691536,3.20635393 L8.24438819,0.247485728 C7.95830231,0.0824422934 7.58151402,0 7.20456689,0 L7.20456689,0 C6.82746091,0 6.45067262,0.0824422934 6.16458675,0.247485728" id="蒙版" fill="url(#linearGradient-1)"></path>
            <path d="M10.904952,6.65123882 C10.9285848,7.35912952 10.8243541,8.08471946 10.5778704,8.7967039 C10.5642095,8.83863986 10.5499131,8.88009928 10.5348225,8.92139985 C10.5330752,8.9261653 10.5316456,8.9310896 10.5297394,8.93585505 C10.5276744,8.94141474 10.5252916,8.94665674 10.5232266,8.95221643 C10.5062298,8.99701167 10.4884388,9.04133035 10.4695359,9.0854902 C10.3556729,9.3524792 10.2072082,9.60782246 10.0245365,9.84417559 C10.1404969,9.63721432 10.2517694,9.41543823 10.3551651,9.17889303 L10.3551651,9.17889303 L10.4205869,9.02041788 C10.7345743,8.21525927 10.8543398,7.23310475 10.8971456,6.73760084 Z M4.81243592,1.02722695 C5.27957834,1.00724801 5.75303529,1.0422537 6.22383718,1.13655994 C6.49816828,1.19152147 6.77138744,1.2652271 7.04190618,1.36117151 C8.81973691,1.99164061 10.0900472,3.38855299 10.6260015,5.05090097 C10.7504703,5.43699459 10.8351958,5.83738279 10.8773183,6.24584437 C10.8429923,6.17911295 10.7918208,6.12024792 10.7337007,6.08786299 L10.7337007,6.08786299 L10.4642939,5.9377513 L10.4617724,5.92417604 C10.4200843,5.73412148 10.3687085,5.54661943 10.3079871,5.36240258 C10.1129618,4.77095944 9.82192241,4.21356322 9.44614095,3.71479627 C8.80955178,2.86941991 7.92921741,2.19222363 6.86034252,1.80308761 L6.86034252,1.80308761 L6.6009667,1.71593282 C6.42758666,1.66234798 6.25338297,1.61765864 6.07896749,1.58101762 L6.07896749,1.58101762 L5.97197506,1.56045533 C5.92010307,1.55060779 5.8682128,1.54150903 5.81631737,1.53315292 L5.7650322,1.52431756 C5.73135912,1.51921198 5.69768546,1.5144179 5.66401482,1.50993366 C5.62803535,1.50596543 5.59198691,1.50152057 5.55594657,1.4974292 C5.49962633,1.49020397 5.4432551,1.48466319 5.38692,1.47997932 C5.33249391,1.47629868 5.27818837,1.47258381 5.2239321,1.46965979 C5.185325,1.46672277 5.14696625,1.46504739 5.10863728,1.46376506 C5.02993884,1.46200123 4.95092447,1.46103305 4.87208518,1.46171971 C4.82606837,1.46122256 4.78066933,1.46216661 4.73533726,1.46365636 C4.68921918,1.46608888 4.64248618,1.46821024 4.59583481,1.47090894 C4.54885187,1.47268693 4.5025235,1.47594014 4.45628545,1.47976001 C4.39845444,1.48550507 4.34056271,1.4911999 4.28283307,1.49777855 L4.20780432,1.50583465 L4.20780432,1.50583465 L4.19735507,1.50817973 C4.11316647,1.51907554 4.02934502,1.53185222 3.94595132,1.54648146 L3.90338049,1.55306031 Z" id="形状结合" fill="url(#linearGradient-2)" opacity="0.800000012"></path>
            <mask id="mask-5" fill="white">
                <use xlink:href="#path-4"></use>
            </mask>
            <use id="蒙版" fill="url(#linearGradient-3)" xlink:href="#path-4"></use>
            <path d="M8.95737408,12.0726992 C9.18693756,12.0772726 9.4169447,12.0680067 9.64604221,12.0447745 C9.85626538,12.0233638 10.0652543,11.9904021 10.2724435,11.9456391 C10.3105505,11.9374057 10.3490849,11.9286537 10.3875501,11.9194914 C11.2173793,11.7220231 12.0151264,11.3335728 12.7132688,10.7478382 L12.7132688,10.7478382 L12.9183479,10.566804 C13.051404,10.4434671 13.1772119,10.3149764 13.2962422,10.1821792 L13.2962422,10.1821792 L13.5025279,9.93845211 C13.8994413,9.44168655 14.2022905,8.89046981 14.4089749,8.31031025 L14.4089749,8.31031025 L14.4100493,9.36049863 C14.1936018,9.77574959 13.9262317,10.1689275 13.6086969,10.5300571 C13.4239563,10.7400546 13.2233309,10.9398858 13.0049144,11.1260561 C11.5701961,12.350618 9.72533135,12.7523455 8.01771159,12.3850881 C7.91386685,12.3627663 7.81053731,12.3375969 7.70784504,12.3095907 C7.82976868,12.2342151 7.98389063,12.1320372 8.15829238,12.0001986 L8.15829238,12.0001986 C8.2417625,12.0138277 8.31647356,12.0242804 8.39135292,12.0332505 L8.42100323,12.0364881 C8.42166852,12.0365644 8.42233383,12.0366405 8.42299915,12.0367165 C8.44936225,12.0399593 8.47528957,12.0427372 8.50123421,12.0453375 C8.65014067,12.0600527 8.79995771,12.0691591 8.94997123,12.0723576 Z" id="形状结合" fill="url(#linearGradient-6)" opacity="0.800000012"></path>
            <mask id="mask-9" fill="white">
                <use xlink:href="#path-8"></use>
            </mask>
            <use id="蒙版" fill="url(#linearGradient-7)" xlink:href="#path-8"></use>
            <path d="M6.32947498,4.60894862 L5.26433074,5.20168733 C5.18479,5.23805842 5.10633845,5.27617255 5.02901534,5.31597392 L4.99541583,5.33426289 C4.98455346,5.33994473 4.97371373,5.34565992 4.96289675,5.3514083 C4.90795858,5.37978395 4.8544618,5.40936937 4.80154563,5.43976622 L4.73420443,5.47986799 L4.73420443,5.47986799 L4.70592117,5.49595672 C4.64264369,5.53398336 4.58023144,5.57318462 4.51870893,5.61352564 L4.48238273,5.63832216 L3.67527426,6.08786299 L3.61453319,6.13342451 C3.53865197,6.2060271 3.48599057,6.32108414 3.49005709,6.4190618 L3.49005709,6.4190618 C3.49072778,6.43441714 3.49153967,6.45167866 3.49291636,6.4765649 L3.49291636,6.4765649 L3.44544056,6.52789278 L3.44544056,6.52789278 L3.41347498,6.56194862 L3.39903698,6.57886324 C3.21075708,6.78975814 3.03845319,7.01428427 2.88358776,7.25037899 C2.11915592,8.41574617 1.77933263,9.86319176 2.04040705,11.3441549 L2.04040705,11.3441549 L2.09448609,11.6124497 C2.13472767,11.7894068 2.18315877,11.9625515 2.23864979,12.1318838 C2.26833198,12.2200628 2.29962509,12.3080886 2.33293978,12.3949621 L2.34684589,12.4329441 C2.35440381,12.4522426 2.36206158,12.4714834 2.36981849,12.4906661 C2.39436373,12.5493157 2.41926283,12.607988 2.44508726,12.666091 C2.45919664,12.6997843 2.47420709,12.7327044 2.48951356,12.7654369 C2.51954774,12.8277453 2.54999815,12.8898211 2.58151041,12.9511875 C2.65780941,13.1016906 2.74136379,13.2478226 2.83088506,13.3894131 C2.84390422,13.4082505 2.85630386,13.4275916 2.86881474,13.4468462 C2.90091607,13.4980087 2.93453467,13.547992 2.96890215,13.5973671 C2.99290623,13.6301182 3.01625344,13.6628888 3.03992998,13.6953823 L3.11209434,13.7939201 L3.11209434,13.7939201 C3.16975096,13.8676369 3.22272468,13.9337642 3.27708632,13.9985961 L3.30595185,14.0344105 L2.39462628,13.5091561 C2.14273075,13.1135839 1.93553378,12.6848471 1.78132539,12.2286225 C1.69173492,11.9638223 1.61898238,11.6901266 1.56688012,11.4078531 C1.22376768,9.55298089 1.79848101,7.75449988 2.97014644,6.45925043 C3.79806404,5.5438074 4.92461653,4.88109208 6.23829238,4.62788781 C6.28118143,4.61883346 6.32438819,4.61041449 6.36775379,4.60294862 L6.32947498,4.60894862 Z" id="形状结合" fill="url(#linearGradient-10)" opacity="0.800000012"></path>
        </g>
    </g>
</svg>