<?xml version="1.0" encoding="UTF-8"?>
<svg viewBox="0 0 141 21" version="1.1" xmlns="http://www.w3.org/2000/svg" xmlns:xlink="http://www.w3.org/1999/xlink">
    <title>中国电子云logo-01</title>
    <defs>
        <linearGradient x1="-9.26154218%" y1="9.70787813%" x2="106.869286%" y2="81.455772%" id="linearGradient-1">
            <stop stop-color="#A4D2FF" offset="0%"></stop>
            <stop stop-color="#B1D3FF" offset="21%"></stop>
            <stop stop-color="#2263FF" offset="70%"></stop>
            <stop stop-color="#2244D5" offset="100%"></stop>
        </linearGradient>
        <linearGradient x1="-1.44510786%" y1="2.8448781%" x2="105.755117%" y2="92.7403467%" id="linearGradient-2">
            <stop stop-color="#FFFFFF" offset="1%"></stop>
            <stop stop-color="#327BFF" offset="59%"></stop>
            <stop stop-color="#0055FF" offset="100%"></stop>
        </linearGradient>
        <linearGradient x1="-176.276596%" y1="-0.928046844%" x2="108.191489%" y2="62.8079695%" id="linearGradient-3">
            <stop stop-color="#A4D2FF" offset="0%"></stop>
            <stop stop-color="#2263FF" offset="63%"></stop>
            <stop stop-color="#0A3ABD" offset="100%"></stop>
        </linearGradient>
        <linearGradient x1="-209.052183%" y1="84.1733875%" x2="75.6123536%" y2="20.8810439%" id="linearGradient-4">
            <stop stop-color="#A4D2FF" offset="0%"></stop>
            <stop stop-color="#2263FF" offset="63%"></stop>
            <stop stop-color="#0A3ABD" offset="100%"></stop>
        </linearGradient>
    </defs>
    <g id="控件" stroke="none" stroke-width="1" fill="none" fill-rule="evenodd">
        <g id="头部导航1440" transform="translate(-60.000000, -14.000000)" fill-rule="nonzero">
            <g id="中国电子云logo-01" transform="translate(60.950629, 14.020996)">
                <path d="M13.6493709,14.6690043 L13.6493709,14.5490043 C11.198823,16.5107432 7.63317338,16.1712754 5.59682951,13.7823617 C3.56048565,11.3934481 3.78988244,7.81902892 6.11489141,5.71001541 C8.43990038,3.60100189 12.0196921,3.72010965 14.1993709,5.9790043 L17.3793709,3.2690043 C14.6472064,0.281561514 10.3833667,-0.763829783 6.5792102,0.621063756 C2.77505366,2.0059573 0.181210581,5.54787061 0.00909403078,9.59260954 C-0.163022519,13.6373485 2.12054924,17.3868114 5.7933035,19.0898713 C9.46605776,20.7929313 13.8032923,20.1135431 16.7793709,17.3690043 C16.9860376,17.175671 17.1860376,16.975671 17.3793709,16.7690043 L13.6493709,14.6690043 Z" id="路径" fill="url(#linearGradient-1)"></path>
                <path d="M24.9293709,12.5790043 C23.7274135,14.9925576 21.0229065,16.2620272 18.3982576,15.6446461 C15.7736087,15.027265 13.9186017,12.6852872 13.9186017,9.9890043 C13.9186017,7.29272144 15.7736087,4.95074356 18.3982576,4.33336248 C21.0229065,3.71598139 23.7274135,4.98545098 24.9293709,7.3990043 L25.8593709,6.4690043 L27.3693709,4.9790043 C27.7246882,4.62195288 27.758967,4.0563535 27.4493709,3.6590043 C24.7830269,0.407988001 20.3678713,-0.827919483 16.4011989,0.566357096 C12.4345265,1.96063368 9.7636879,5.6872524 9.71788196,9.89158341 C9.67207602,14.0959144 12.2610877,17.8798389 16.196441,19.3602076 C20.1317943,20.8405763 24.5728289,19.7011565 27.3093709,16.5090043 C27.7047986,16.0399411 27.6788183,15.3471346 27.2493709,14.9090043 L24.9293709,12.5790043 Z" id="路径" fill="url(#linearGradient-2)"></path>
                <path d="M24.9293709,7.3990043 C24.0848442,5.70601695 22.4688834,4.53025838 20.5981695,4.24766118 C18.7274557,3.96506398 16.8362991,4.61102396 15.5293709,5.9790043 L15.5293709,5.9790043 C15.5293709,5.9790043 22.2493709,9.5890043 24.9293709,7.3990043 Z" id="路径" fill="url(#linearGradient-3)"></path>
                <path d="M15.5293709,13.9790043 C16.8364357,15.3426555 18.7248333,15.9857834 20.5925034,15.7033455 C22.4601736,15.4209077 24.0739662,14.2481621 24.9193709,12.5590043 C22.2493709,10.4390043 15.5793709,13.9790043 15.5293709,13.9790043 Z" id="路径" fill="url(#linearGradient-4)"></path>
                <polygon id="路径" fill="#000000" points="60.3093709 8.8590043 62.9493709 8.8590043 62.9493709 6.7190043 58.7193709 6.7190043 60.2893709 5.1290043 69.7393709 5.1290043 68.1693709 6.7190043 65.5493709 6.7190043 65.5493709 8.8590043 69.7193709 8.8590043 68.1493709 10.4590043 65.5493709 10.4590043 65.5493709 13.1190043 67.1193709 13.1190043 67.1193709 11.7790043 69.7393709 11.7790043 69.7393709 13.1190043 68.1493709 14.7290043 58.7193709 14.7290043 60.3093709 13.1190043 62.9493709 13.1190043 62.9493709 10.4590043 58.7193709 10.4590043"></polygon>
                <path d="M113.739371,4.0590043 L98.5493709,4.0590043 L100.429371,2.1390043 L113.719371,2.1390043 C115.177403,2.1390043 116.359371,3.32097256 116.359371,4.7790043 L116.359371,5.3390043 C116.348483,6.79250216 115.172869,7.96811622 113.719371,7.9790043 L113.739371,4.0590043 Z" id="路径" fill="#000000"></path>
                <path d="M99.3293709,9.7290043 L107.539371,9.7290043 L107.539371,7.9790043 L109.459371,6.0990043 L113.219371,6.0990043 L111.339371,7.9790043 L110.339371,7.9790043 L110.339371,9.7090043 L116.799371,9.7090043 L114.959371,11.5690043 L110.319371,11.5690043 L110.319371,15.2190043 C110.330897,16.6651537 109.184913,17.8555556 107.739371,17.8990043 L99.5793709,17.8990043 L101.659371,15.7990043 L107.539371,15.7990043 L107.539371,11.5690043 L97.5393709,11.5690043 L99.3293709,9.7290043 Z" id="路径" fill="#000000"></path>
                <path d="M73.4094473,4.7590043 L73.4094473,15.0390043 C73.4146954,15.7391818 73.1416469,16.4127949 72.6502973,16.9116461 C72.1589477,17.4104972 71.4895487,17.69372 70.7893709,17.6990043 L70.7893709,17.6990043 L70.7893709,4.0790043 L57.6893709,4.0790043 L57.6893709,15.7990043 L70.2793709,15.7990043 L68.4193709,17.6990043 L57.6893709,17.6990043 C56.9857203,17.6990043 56.3111772,17.4181387 55.8155022,16.9187086 C55.3198272,16.4192785 55.0440402,15.7426347 55.049295,15.0390043 L55.049295,15.0390043 L55.049295,4.7790043 C55.049295,3.31770204 56.2281099,2.12999153 57.6893709,2.1190043 L70.7893709,2.1190043 C72.2363569,2.1190043 73.4094473,3.29201826 73.4094473,4.7390043 L73.4094473,4.7390043" id="路径" fill="#000000"></path>
                <path d="M52.4693709,13.6990043 C52.4091863,15.1126552 51.2825191,16.2479891 49.8693709,16.3190043 L49.8693709,5.1290043 L44.4593709,5.1290043 L44.4593709,14.1890043 L49.3293709,14.1890043 L47.2193709,16.3190043 L44.4593709,16.3190043 L44.4593709,18.4290043 L41.6493709,18.4290043 L41.6493709,16.3190043 L36.1793709,16.3190043 C34.7448748,16.2755611 33.6078408,15.0941118 33.619284,13.6590043 L33.619284,5.6590043 C33.6080714,4.20527536 34.7659669,3.01175226 36.2193709,2.9790043 L41.6493709,2.9790043 L41.6493709,1.5190043 L44.4593709,1.5190043 L44.4593709,2.9790043 L49.8693709,2.9790043 C51.3040071,3.00070376 52.4586653,4.16424392 52.4693709,5.5990043 L52.4693709,13.6990043 Z M41.6393709,14.1890043 L41.6393709,5.1290043 L36.2293709,5.1290043 L36.2293709,14.2090043 L41.6393709,14.1890043 Z" id="形状" fill="#000000"></path>
                <path d="M84.0493709,9.3790043 L78.6593709,9.3790043 L80.4593709,7.5590043 L84.0493709,7.5590043 L84.0493709,4.6590043 L78.6593709,4.6590043 L78.6593709,12.3190043 L84.0493709,12.3190043 L84.0493709,9.3790043 Z M78.6593709,14.1890043 C77.2220536,14.1516027 76.0703441,12.9866552 76.0493709,11.5490043 L76.0493709,5.4390043 C76.0596658,3.99356686 77.214389,2.81672256 78.6593709,2.7790043 L84.0493709,2.7790043 L84.0493709,1.9790043 L86.8593709,1.9790043 L86.8593709,2.7790043 L92.2493709,2.7790043 C93.6918234,2.7898912 94.858484,3.95655182 94.8693709,5.3990043 L94.8693709,11.5290043 C94.8746954,12.2291818 94.6016469,12.9027949 94.1102973,13.4016461 C93.6189477,13.9004972 92.9495487,14.18372 92.2493709,14.1890043 L92.2493709,14.1890043 L92.2493709,7.5490043 L90.4993709,9.3990043 L86.8693709,9.3990043 L86.8693709,12.3290043 L91.7393709,12.3290043 L89.8993709,14.2090043 L86.8993709,14.2090043 L86.8993709,15.7990043 L94.8993709,15.7990043 L92.8193709,17.9090043 L86.6793709,17.9090043 C85.9791978,17.9063572 85.3087541,17.6256732 84.8155324,17.1287007 C84.3223106,16.6317282 84.0467137,15.9591774 84.0493709,15.2590043 L84.0493709,15.2590043 L84.0493709,14.2590043 L78.6593709,14.1890043 Z M86.8693709,4.6390043 L86.8693709,7.5390043 L92.2593709,7.5390043 L92.2593709,4.6390043 L86.8693709,4.6390043 Z" id="形状" fill="#000000"></path>
                <polygon id="路径" fill="#000000" points="123.599371 2.1390043 121.719371 4.0190043 135.839371 4.0190043 137.719371 2.1190043"></polygon>
                <polygon id="路径" fill="#000000" points="138.249371 17.8590043 135.279371 17.8790043 133.389371 12.8290043 136.359371 12.8290043"></polygon>
                <path d="M138.169371,10.0990043 L140.049371,8.1990043 L121.269371,8.1990043 L119.389371,10.0990043 L124.049371,10.0990043 L121.859371,16.0390043 L121.859371,16.0390043 C121.642418,16.4380916 121.642418,16.919917 121.859371,17.3190043 C122.083678,17.658064 122.453685,17.8726679 122.859371,17.8990043 L132.579371,17.8990043 L134.459371,15.9990043 L124.799371,15.9990043 L126.969371,10.0990043 L138.169371,10.0990043 Z" id="路径" fill="#000000"></path>
            </g>
        </g>
    </g>
</svg>